<mxfile host="www.draw.io" modified="2019-12-03T12:03:28.253Z" agent="Mozilla/5.0 (Windows NT 10.0; Win64; x64) AppleWebKit/537.36 (KHTML, like Gecko) Chrome/68.0.3440.106 Safari/537.36" etag="JRDaJBUkiEDvteD_9H2Z" version="12.3.5" type="github" pages="5">
  <diagram name="场景1-商户开通并购分" id="13e1069c-82ec-6db2-03f1-153e76fe0fe0">
    <mxGraphModel dx="322" dy="799" grid="1" gridSize="10" guides="1" tooltips="1" connect="1" arrows="1" fold="1" page="1" pageScale="1" pageWidth="1100" pageHeight="850" background="#ffffff" math="0" shadow="0">
      <root>
        <mxCell id="0"/>
        <mxCell id="1" parent="0"/>
        <mxCell id="jX6FFc5I8VN9TsYeJxWW-1" value="万金友付服务端" style="shape=umlLifeline;perimeter=lifelinePerimeter;whiteSpace=wrap;html=1;container=1;collapsible=0;recursiveResize=0;outlineConnect=0;rounded=1;shadow=0;comic=0;labelBackgroundColor=none;strokeWidth=1;fontFamily=Verdana;fontSize=12;align=center;" parent="1" vertex="1">
          <mxGeometry x="1780" y="100" width="100" height="1260" as="geometry"/>
        </mxCell>
        <mxCell id="ohoU1M737tt2WUhFRXQZ-19" value="" style="html=1;points=[];perimeter=orthogonalPerimeter;rounded=0;shadow=0;comic=0;labelBackgroundColor=none;strokeWidth=1;fontFamily=Verdana;fontSize=12;align=center;" parent="jX6FFc5I8VN9TsYeJxWW-1" vertex="1">
          <mxGeometry x="45" y="110" width="10" height="90" as="geometry"/>
        </mxCell>
        <mxCell id="ohoU1M737tt2WUhFRXQZ-54" value="" style="html=1;points=[];perimeter=orthogonalPerimeter;rounded=0;shadow=0;comic=0;labelBackgroundColor=none;strokeWidth=1;fontFamily=Verdana;fontSize=12;align=center;" parent="jX6FFc5I8VN9TsYeJxWW-1" vertex="1">
          <mxGeometry x="45" y="346" width="10" height="154" as="geometry"/>
        </mxCell>
        <mxCell id="ohoU1M737tt2WUhFRXQZ-86" value="" style="html=1;points=[];perimeter=orthogonalPerimeter;rounded=0;shadow=0;comic=0;labelBackgroundColor=none;strokeWidth=1;fontFamily=Verdana;fontSize=12;align=center;" parent="jX6FFc5I8VN9TsYeJxWW-1" vertex="1">
          <mxGeometry x="45" y="761" width="10" height="79" as="geometry"/>
        </mxCell>
        <mxCell id="ohoU1M737tt2WUhFRXQZ-96" value="" style="html=1;points=[];perimeter=orthogonalPerimeter;rounded=0;shadow=0;comic=0;labelBackgroundColor=none;strokeWidth=1;fontFamily=Verdana;fontSize=12;align=center;" parent="jX6FFc5I8VN9TsYeJxWW-1" vertex="1">
          <mxGeometry x="45" y="851" width="10" height="79" as="geometry"/>
        </mxCell>
        <mxCell id="jX6FFc5I8VN9TsYeJxWW-5" value="微信服务端" style="shape=umlLifeline;perimeter=lifelinePerimeter;whiteSpace=wrap;html=1;container=1;collapsible=0;recursiveResize=0;outlineConnect=0;rounded=1;shadow=0;comic=0;labelBackgroundColor=none;strokeWidth=1;fontFamily=Verdana;fontSize=12;align=center;" parent="1" vertex="1">
          <mxGeometry x="1990" y="100" width="100" height="1261" as="geometry"/>
        </mxCell>
        <mxCell id="ohoU1M737tt2WUhFRXQZ-55" value="" style="html=1;points=[];perimeter=orthogonalPerimeter;rounded=0;shadow=0;comic=0;labelBackgroundColor=none;strokeWidth=1;fontFamily=Verdana;fontSize=12;align=center;" parent="jX6FFc5I8VN9TsYeJxWW-5" vertex="1">
          <mxGeometry x="45" y="415" width="10" height="65" as="geometry"/>
        </mxCell>
        <mxCell id="ohoU1M737tt2WUhFRXQZ-73" value="" style="html=1;points=[];perimeter=orthogonalPerimeter;rounded=0;shadow=0;comic=0;labelBackgroundColor=none;strokeWidth=1;fontFamily=Verdana;fontSize=12;align=center;" parent="jX6FFc5I8VN9TsYeJxWW-5" vertex="1">
          <mxGeometry x="45" y="559" width="10" height="81" as="geometry"/>
        </mxCell>
        <mxCell id="ohoU1M737tt2WUhFRXQZ-81" value="" style="html=1;points=[];perimeter=orthogonalPerimeter;rounded=0;shadow=0;comic=0;labelBackgroundColor=none;strokeWidth=1;fontFamily=Verdana;fontSize=12;align=center;" parent="jX6FFc5I8VN9TsYeJxWW-5" vertex="1">
          <mxGeometry x="45" y="661" width="10" height="179" as="geometry"/>
        </mxCell>
        <mxCell id="jX6FFc5I8VN9TsYeJxWW-8" value="微信客户端" style="shape=umlLifeline;perimeter=lifelinePerimeter;whiteSpace=wrap;html=1;container=1;collapsible=0;recursiveResize=0;outlineConnect=0;rounded=1;shadow=0;comic=0;labelBackgroundColor=none;strokeWidth=1;fontFamily=Verdana;fontSize=12;align=center;" parent="1" vertex="1">
          <mxGeometry x="1370" y="100" width="100" height="1261" as="geometry"/>
        </mxCell>
        <mxCell id="ohoU1M737tt2WUhFRXQZ-70" value="" style="html=1;points=[];perimeter=orthogonalPerimeter;rounded=0;shadow=0;comic=0;labelBackgroundColor=none;strokeWidth=1;fontFamily=Verdana;fontSize=12;align=center;" parent="jX6FFc5I8VN9TsYeJxWW-8" vertex="1">
          <mxGeometry x="45" y="551" width="10" height="90" as="geometry"/>
        </mxCell>
        <mxCell id="jX6FFc5I8VN9TsYeJxWW-15" value="万金友付商户&lt;br&gt;微信支付客户" style="shape=umlActor;verticalLabelPosition=bottom;labelBackgroundColor=#ffffff;verticalAlign=top;html=1;outlineConnect=0;" parent="1" vertex="1">
          <mxGeometry x="1210" y="80" width="30" height="60" as="geometry"/>
        </mxCell>
        <mxCell id="jX6FFc5I8VN9TsYeJxWW-16" value="" style="endArrow=none;dashed=1;html=1;strokeColor=#000000;entryX=0.5;entryY=0.5;entryDx=0;entryDy=0;entryPerimeter=0;" parent="1" target="jX6FFc5I8VN9TsYeJxWW-15" edge="1">
          <mxGeometry width="50" height="50" relative="1" as="geometry">
            <mxPoint x="1225" y="1360" as="sourcePoint"/>
            <mxPoint x="1260" y="180" as="targetPoint"/>
          </mxGeometry>
        </mxCell>
        <mxCell id="ohoU1M737tt2WUhFRXQZ-8" value="" style="edgeStyle=elbowEdgeStyle;rounded=0;orthogonalLoop=1;jettySize=auto;elbow=vertical;html=1;startArrow=none;startFill=0;endArrow=block;endFill=1;strokeColor=#000000;" parent="1" target="ohoU1M737tt2WUhFRXQZ-7" edge="1">
          <mxGeometry relative="1" as="geometry">
            <mxPoint x="1229.9999999999995" y="210.35294117647072" as="sourcePoint"/>
            <mxPoint x="1624.9999999999995" y="210.35294117647072" as="targetPoint"/>
          </mxGeometry>
        </mxCell>
        <mxCell id="ohoU1M737tt2WUhFRXQZ-10" value="输入手机号，请求验证码" style="text;html=1;align=center;verticalAlign=middle;resizable=0;points=[];;labelBackgroundColor=#ffffff;" parent="ohoU1M737tt2WUhFRXQZ-8" vertex="1" connectable="0">
          <mxGeometry x="0.1047" y="-2" relative="1" as="geometry">
            <mxPoint x="1" as="offset"/>
          </mxGeometry>
        </mxCell>
        <mxCell id="ohoU1M737tt2WUhFRXQZ-23" style="edgeStyle=elbowEdgeStyle;rounded=0;orthogonalLoop=1;jettySize=auto;elbow=vertical;html=1;startArrow=none;startFill=0;endArrow=block;endFill=1;strokeColor=#000000;" parent="1" edge="1">
          <mxGeometry relative="1" as="geometry">
            <mxPoint x="1229.9999999999995" y="250.67647058823536" as="sourcePoint"/>
            <mxPoint x="1624.9999999999995" y="250.67647058823536" as="targetPoint"/>
          </mxGeometry>
        </mxCell>
        <mxCell id="ohoU1M737tt2WUhFRXQZ-24" value="输入验证码 /&amp;nbsp;登录密码" style="text;html=1;align=center;verticalAlign=middle;resizable=0;points=[];;labelBackgroundColor=#ffffff;" parent="ohoU1M737tt2WUhFRXQZ-23" vertex="1" connectable="0">
          <mxGeometry x="0.5455" y="-2" relative="1" as="geometry">
            <mxPoint x="-24.5" y="-2.5" as="offset"/>
          </mxGeometry>
        </mxCell>
        <mxCell id="ohoU1M737tt2WUhFRXQZ-79" style="edgeStyle=elbowEdgeStyle;rounded=0;orthogonalLoop=1;jettySize=auto;elbow=vertical;html=1;startArrow=none;startFill=0;endArrow=block;endFill=1;strokeColor=#000000;" parent="1" source="jX6FFc5I8VN9TsYeJxWW-17" target="ohoU1M737tt2WUhFRXQZ-78" edge="1">
          <mxGeometry relative="1" as="geometry">
            <Array as="points">
              <mxPoint x="1390" y="790.5"/>
            </Array>
          </mxGeometry>
        </mxCell>
        <mxCell id="ohoU1M737tt2WUhFRXQZ-80" value="确认支付，输入密码" style="text;html=1;align=center;verticalAlign=middle;resizable=0;points=[];;labelBackgroundColor=#ffffff;" parent="ohoU1M737tt2WUhFRXQZ-79" vertex="1" connectable="0">
          <mxGeometry x="0.7297" y="79" relative="1" as="geometry">
            <mxPoint x="-79" y="79" as="offset"/>
          </mxGeometry>
        </mxCell>
        <mxCell id="ohoU1M737tt2WUhFRXQZ-119" style="edgeStyle=elbowEdgeStyle;rounded=0;orthogonalLoop=1;jettySize=auto;elbow=vertical;html=1;startArrow=none;startFill=0;endArrow=block;endFill=1;strokeColor=#000000;" parent="1" edge="1">
          <mxGeometry relative="1" as="geometry">
            <mxPoint x="1229.9999999999995" y="1160.5588235294117" as="sourcePoint"/>
            <mxPoint x="1624.9999999999995" y="1160.5588235294117" as="targetPoint"/>
          </mxGeometry>
        </mxCell>
        <mxCell id="ohoU1M737tt2WUhFRXQZ-120" value="输入发分规则账户金额，发分规则" style="text;html=1;align=center;verticalAlign=middle;resizable=0;points=[];;labelBackgroundColor=#ffffff;" parent="ohoU1M737tt2WUhFRXQZ-119" vertex="1" connectable="0">
          <mxGeometry x="0.2354" y="4" relative="1" as="geometry">
            <mxPoint x="-24.5" y="3.5" as="offset"/>
          </mxGeometry>
        </mxCell>
        <mxCell id="jX6FFc5I8VN9TsYeJxWW-17" value="" style="html=1;points=[];perimeter=orthogonalPerimeter;rounded=0;shadow=0;comic=0;labelBackgroundColor=none;strokeWidth=1;fontFamily=Verdana;fontSize=12;align=center;" parent="1" vertex="1">
          <mxGeometry x="1220" y="191" width="10" height="1110" as="geometry"/>
        </mxCell>
        <mxCell id="ohoU1M737tt2WUhFRXQZ-6" value="万金友付商户&lt;br&gt;客户端" style="shape=umlLifeline;perimeter=lifelinePerimeter;whiteSpace=wrap;html=1;container=1;collapsible=0;recursiveResize=0;outlineConnect=0;rounded=1;shadow=0;comic=0;labelBackgroundColor=none;strokeWidth=1;fontFamily=Verdana;fontSize=12;align=center;" parent="1" vertex="1">
          <mxGeometry x="1580" y="100" width="100" height="1260" as="geometry"/>
        </mxCell>
        <mxCell id="ohoU1M737tt2WUhFRXQZ-7" value="" style="html=1;points=[];perimeter=orthogonalPerimeter;rounded=0;shadow=0;comic=0;labelBackgroundColor=none;strokeWidth=1;fontFamily=Verdana;fontSize=12;align=center;" parent="ohoU1M737tt2WUhFRXQZ-6" vertex="1">
          <mxGeometry x="45" y="100" width="10" height="100" as="geometry"/>
        </mxCell>
        <mxCell id="ohoU1M737tt2WUhFRXQZ-67" value="" style="html=1;points=[];perimeter=orthogonalPerimeter;rounded=0;shadow=0;comic=0;labelBackgroundColor=none;strokeWidth=1;fontFamily=Verdana;fontSize=12;align=center;" parent="ohoU1M737tt2WUhFRXQZ-6" vertex="1">
          <mxGeometry x="45" y="346" width="10" height="234" as="geometry"/>
        </mxCell>
        <mxCell id="ohoU1M737tt2WUhFRXQZ-93" value="" style="html=1;points=[];perimeter=orthogonalPerimeter;rounded=0;shadow=0;comic=0;labelBackgroundColor=none;strokeWidth=1;fontFamily=Verdana;fontSize=12;align=center;" parent="ohoU1M737tt2WUhFRXQZ-6" vertex="1">
          <mxGeometry x="45" y="791" width="10" height="139" as="geometry"/>
        </mxCell>
        <mxCell id="ohoU1M737tt2WUhFRXQZ-128" value="" style="html=1;points=[];perimeter=orthogonalPerimeter;rounded=0;shadow=0;comic=0;labelBackgroundColor=none;strokeWidth=1;fontFamily=Verdana;fontSize=12;align=center;" parent="ohoU1M737tt2WUhFRXQZ-6" vertex="1">
          <mxGeometry x="45" y="1150" width="10" height="60" as="geometry"/>
        </mxCell>
        <mxCell id="ohoU1M737tt2WUhFRXQZ-20" value="" style="edgeStyle=elbowEdgeStyle;rounded=0;orthogonalLoop=1;jettySize=auto;elbow=vertical;html=1;startArrow=none;startFill=0;endArrow=block;endFill=1;strokeColor=#000000;" parent="1" edge="1">
          <mxGeometry relative="1" as="geometry">
            <mxPoint x="1634.9999999999995" y="224.5" as="sourcePoint"/>
            <mxPoint x="1824.9999999999995" y="224.5" as="targetPoint"/>
            <Array as="points">
              <mxPoint x="1770" y="224.5"/>
            </Array>
          </mxGeometry>
        </mxCell>
        <mxCell id="ohoU1M737tt2WUhFRXQZ-21" value="请求验证码" style="text;html=1;align=center;verticalAlign=middle;resizable=0;points=[];;labelBackgroundColor=#ffffff;" parent="ohoU1M737tt2WUhFRXQZ-20" vertex="1" connectable="0">
          <mxGeometry y="14" relative="1" as="geometry">
            <mxPoint x="-14" y="12" as="offset"/>
          </mxGeometry>
        </mxCell>
        <mxCell id="ohoU1M737tt2WUhFRXQZ-25" value="" style="edgeStyle=elbowEdgeStyle;rounded=0;orthogonalLoop=1;jettySize=auto;elbow=vertical;html=1;startArrow=none;startFill=0;endArrow=block;endFill=1;strokeColor=#000000;" parent="1" edge="1">
          <mxGeometry relative="1" as="geometry">
            <mxPoint x="1634.9999999999995" y="260.5" as="sourcePoint"/>
            <mxPoint x="1824.9999999999995" y="260.5" as="targetPoint"/>
          </mxGeometry>
        </mxCell>
        <mxCell id="ohoU1M737tt2WUhFRXQZ-26" value="上送注册信息" style="text;html=1;align=center;verticalAlign=middle;resizable=0;points=[];;labelBackgroundColor=#ffffff;" parent="ohoU1M737tt2WUhFRXQZ-25" vertex="1" connectable="0">
          <mxGeometry y="14" relative="1" as="geometry">
            <mxPoint x="-14" y="12" as="offset"/>
          </mxGeometry>
        </mxCell>
        <mxCell id="ohoU1M737tt2WUhFRXQZ-27" style="edgeStyle=elbowEdgeStyle;rounded=0;orthogonalLoop=1;jettySize=auto;elbow=vertical;html=1;startArrow=none;startFill=0;endArrow=block;endFill=1;strokeColor=#000000;" parent="1" edge="1">
          <mxGeometry relative="1" as="geometry">
            <mxPoint x="1824.9999999999995" y="290.5588235294117" as="sourcePoint"/>
            <mxPoint x="1634.9999999999995" y="290.5588235294117" as="targetPoint"/>
          </mxGeometry>
        </mxCell>
        <mxCell id="ohoU1M737tt2WUhFRXQZ-28" value="注册结果" style="text;html=1;align=center;verticalAlign=middle;resizable=0;points=[];;labelBackgroundColor=#ffffff;" parent="ohoU1M737tt2WUhFRXQZ-27" vertex="1" connectable="0">
          <mxGeometry x="-0.3389" y="2" relative="1" as="geometry">
            <mxPoint x="-32" y="-2.5" as="offset"/>
          </mxGeometry>
        </mxCell>
        <mxCell id="ohoU1M737tt2WUhFRXQZ-31" value="" style="edgeStyle=elbowEdgeStyle;rounded=0;orthogonalLoop=1;jettySize=auto;elbow=vertical;html=1;startArrow=none;startFill=0;endArrow=block;endFill=1;strokeColor=#000000;" parent="1" edge="1">
          <mxGeometry relative="1" as="geometry">
            <mxPoint x="1634.9999999999995" y="329" as="sourcePoint"/>
            <mxPoint x="1824.9999999999995" y="329" as="targetPoint"/>
            <Array as="points">
              <mxPoint x="1770" y="329"/>
            </Array>
          </mxGeometry>
        </mxCell>
        <mxCell id="ohoU1M737tt2WUhFRXQZ-32" value="请求进件页面" style="text;html=1;align=center;verticalAlign=middle;resizable=0;points=[];;labelBackgroundColor=#ffffff;" parent="ohoU1M737tt2WUhFRXQZ-31" vertex="1" connectable="0">
          <mxGeometry y="14" relative="1" as="geometry">
            <mxPoint x="-0.5" y="15" as="offset"/>
          </mxGeometry>
        </mxCell>
        <mxCell id="ohoU1M737tt2WUhFRXQZ-33" value="" style="edgeStyle=elbowEdgeStyle;rounded=0;orthogonalLoop=1;jettySize=auto;elbow=vertical;html=1;startArrow=none;startFill=0;endArrow=block;endFill=1;strokeColor=#000000;" parent="1" edge="1">
          <mxGeometry relative="1" as="geometry">
            <mxPoint x="1229.9999999999995" y="371.8529411764707" as="sourcePoint"/>
            <mxPoint x="1624.9999999999995" y="371.7647058823529" as="targetPoint"/>
          </mxGeometry>
        </mxCell>
        <mxCell id="ohoU1M737tt2WUhFRXQZ-34" value="录入进件信息" style="text;html=1;align=center;verticalAlign=middle;resizable=0;points=[];;labelBackgroundColor=#ffffff;" parent="ohoU1M737tt2WUhFRXQZ-33" vertex="1" connectable="0">
          <mxGeometry x="0.1047" y="-2" relative="1" as="geometry">
            <mxPoint x="1" as="offset"/>
          </mxGeometry>
        </mxCell>
        <mxCell id="ohoU1M737tt2WUhFRXQZ-35" value="" style="edgeStyle=elbowEdgeStyle;rounded=0;orthogonalLoop=1;jettySize=auto;elbow=vertical;html=1;startArrow=none;startFill=0;endArrow=block;endFill=1;strokeColor=#000000;" parent="1" edge="1">
          <mxGeometry relative="1" as="geometry">
            <mxPoint x="1634.9999999999995" y="390.5" as="sourcePoint"/>
            <mxPoint x="1824.9999999999995" y="390.5" as="targetPoint"/>
          </mxGeometry>
        </mxCell>
        <mxCell id="ohoU1M737tt2WUhFRXQZ-36" value="上送进件信息" style="text;html=1;align=center;verticalAlign=middle;resizable=0;points=[];;labelBackgroundColor=#ffffff;" parent="ohoU1M737tt2WUhFRXQZ-35" vertex="1" connectable="0">
          <mxGeometry y="14" relative="1" as="geometry">
            <mxPoint y="13.5" as="offset"/>
          </mxGeometry>
        </mxCell>
        <mxCell id="ohoU1M737tt2WUhFRXQZ-40" style="edgeStyle=elbowEdgeStyle;rounded=0;orthogonalLoop=1;jettySize=auto;elbow=vertical;html=1;startArrow=none;startFill=0;endArrow=block;endFill=1;strokeColor=#000000;" parent="1" edge="1">
          <mxGeometry relative="1" as="geometry">
            <mxPoint x="1824.9999999999995" y="420.5588235294117" as="sourcePoint"/>
            <mxPoint x="1634.9999999999995" y="420.5588235294117" as="targetPoint"/>
          </mxGeometry>
        </mxCell>
        <mxCell id="ohoU1M737tt2WUhFRXQZ-41" value="上送进件信息结果" style="text;html=1;align=center;verticalAlign=middle;resizable=0;points=[];;labelBackgroundColor=#ffffff;" parent="ohoU1M737tt2WUhFRXQZ-40" vertex="1" connectable="0">
          <mxGeometry x="-0.3389" y="2" relative="1" as="geometry">
            <mxPoint x="-32" y="-3" as="offset"/>
          </mxGeometry>
        </mxCell>
        <mxCell id="ohoU1M737tt2WUhFRXQZ-43" value="" style="edgeStyle=elbowEdgeStyle;rounded=0;orthogonalLoop=1;jettySize=auto;elbow=vertical;html=1;startArrow=none;startFill=0;endArrow=block;endFill=1;strokeColor=#000000;" parent="1" edge="1">
          <mxGeometry relative="1" as="geometry">
            <mxPoint x="1634.9999999999995" y="460.5" as="sourcePoint"/>
            <mxPoint x="1824.9999999999995" y="460.5" as="targetPoint"/>
            <Array as="points">
              <mxPoint x="1770" y="460.5"/>
            </Array>
          </mxGeometry>
        </mxCell>
        <mxCell id="ohoU1M737tt2WUhFRXQZ-44" value="请求积分充值页面" style="text;html=1;align=center;verticalAlign=middle;resizable=0;points=[];;labelBackgroundColor=#ffffff;" parent="ohoU1M737tt2WUhFRXQZ-43" vertex="1" connectable="0">
          <mxGeometry y="14" relative="1" as="geometry">
            <mxPoint x="-0.5" y="15" as="offset"/>
          </mxGeometry>
        </mxCell>
        <mxCell id="ohoU1M737tt2WUhFRXQZ-47" value="" style="edgeStyle=elbowEdgeStyle;rounded=0;orthogonalLoop=1;jettySize=auto;elbow=vertical;html=1;startArrow=none;startFill=0;endArrow=block;endFill=1;strokeColor=#000000;" parent="1" edge="1">
          <mxGeometry relative="1" as="geometry">
            <mxPoint x="1229.9999999999995" y="510.3529411764707" as="sourcePoint"/>
            <mxPoint x="1624.9999999999995" y="510.2647058823529" as="targetPoint"/>
          </mxGeometry>
        </mxCell>
        <mxCell id="ohoU1M737tt2WUhFRXQZ-48" value="输入充值积分金额，点击下单" style="text;html=1;align=center;verticalAlign=middle;resizable=0;points=[];;labelBackgroundColor=#ffffff;" parent="ohoU1M737tt2WUhFRXQZ-47" vertex="1" connectable="0">
          <mxGeometry x="0.1047" y="-2" relative="1" as="geometry">
            <mxPoint x="1" as="offset"/>
          </mxGeometry>
        </mxCell>
        <mxCell id="ohoU1M737tt2WUhFRXQZ-51" value="" style="edgeStyle=elbowEdgeStyle;rounded=0;orthogonalLoop=1;jettySize=auto;elbow=vertical;html=1;startArrow=none;startFill=0;endArrow=block;endFill=1;strokeColor=#000000;" parent="1" edge="1">
          <mxGeometry relative="1" as="geometry">
            <mxPoint x="1634.9999999999995" y="530.5" as="sourcePoint"/>
            <mxPoint x="1824.9999999999995" y="530.5" as="targetPoint"/>
            <Array as="points">
              <mxPoint x="1770" y="530.5"/>
            </Array>
          </mxGeometry>
        </mxCell>
        <mxCell id="ohoU1M737tt2WUhFRXQZ-52" value="请求生成充值订单" style="text;html=1;align=center;verticalAlign=middle;resizable=0;points=[];;labelBackgroundColor=#ffffff;" parent="ohoU1M737tt2WUhFRXQZ-51" vertex="1" connectable="0">
          <mxGeometry y="14" relative="1" as="geometry">
            <mxPoint x="-0.5" y="15" as="offset"/>
          </mxGeometry>
        </mxCell>
        <mxCell id="ohoU1M737tt2WUhFRXQZ-53" value="" style="html=1;points=[];perimeter=orthogonalPerimeter;rounded=0;shadow=0;comic=0;labelBackgroundColor=none;strokeWidth=1;fontFamily=Verdana;fontSize=12;align=center;" parent="1" vertex="1">
          <mxGeometry x="1825" y="316.5" width="10" height="110" as="geometry"/>
        </mxCell>
        <mxCell id="ohoU1M737tt2WUhFRXQZ-56" value="" style="edgeStyle=elbowEdgeStyle;rounded=0;orthogonalLoop=1;jettySize=auto;elbow=vertical;html=1;startArrow=none;startFill=0;endArrow=block;endFill=1;strokeColor=#000000;" parent="1" edge="1">
          <mxGeometry relative="1" as="geometry">
            <mxPoint x="1834.9999999999995" y="540.5" as="sourcePoint"/>
            <mxPoint x="2034.9999999999995" y="540.5" as="targetPoint"/>
            <Array as="points">
              <mxPoint x="1920" y="540.5"/>
              <mxPoint x="1960" y="490.5"/>
            </Array>
          </mxGeometry>
        </mxCell>
        <mxCell id="ohoU1M737tt2WUhFRXQZ-57" value="支付下单" style="text;html=1;align=center;verticalAlign=middle;resizable=0;points=[];;labelBackgroundColor=#ffffff;" parent="ohoU1M737tt2WUhFRXQZ-56" vertex="1" connectable="0">
          <mxGeometry x="0.1318" y="1" relative="1" as="geometry">
            <mxPoint as="offset"/>
          </mxGeometry>
        </mxCell>
        <mxCell id="ohoU1M737tt2WUhFRXQZ-59" style="edgeStyle=elbowEdgeStyle;rounded=0;orthogonalLoop=1;jettySize=auto;elbow=vertical;html=1;startArrow=none;startFill=0;endArrow=block;endFill=1;strokeColor=#000000;" parent="1" edge="1">
          <mxGeometry relative="1" as="geometry">
            <mxPoint x="2034.9999999999995" y="570.4411764705883" as="sourcePoint"/>
            <mxPoint x="1834.9999999999995" y="570.4411764705883" as="targetPoint"/>
          </mxGeometry>
        </mxCell>
        <mxCell id="ohoU1M737tt2WUhFRXQZ-60" value="返回预付单信息" style="text;html=1;align=center;verticalAlign=middle;resizable=0;points=[];;labelBackgroundColor=#ffffff;" parent="ohoU1M737tt2WUhFRXQZ-59" vertex="1" connectable="0">
          <mxGeometry x="0.3609" y="1" relative="1" as="geometry">
            <mxPoint x="41" y="1" as="offset"/>
          </mxGeometry>
        </mxCell>
        <mxCell id="ohoU1M737tt2WUhFRXQZ-63" style="edgeStyle=elbowEdgeStyle;rounded=0;orthogonalLoop=1;jettySize=auto;elbow=vertical;html=1;startArrow=none;startFill=0;endArrow=block;endFill=1;strokeColor=#000000;" parent="1" edge="1">
          <mxGeometry relative="1" as="geometry">
            <mxPoint x="1824.9999999999995" y="580.5294117647059" as="sourcePoint"/>
            <mxPoint x="1634.9999999999995" y="580.5294117647059" as="targetPoint"/>
          </mxGeometry>
        </mxCell>
        <mxCell id="ohoU1M737tt2WUhFRXQZ-64" value="返回支付信息" style="text;html=1;align=center;verticalAlign=middle;resizable=0;points=[];;labelBackgroundColor=#ffffff;" parent="ohoU1M737tt2WUhFRXQZ-63" vertex="1" connectable="0">
          <mxGeometry x="-0.2277" y="-1" relative="1" as="geometry">
            <mxPoint x="-21" y="0.5" as="offset"/>
          </mxGeometry>
        </mxCell>
        <mxCell id="ohoU1M737tt2WUhFRXQZ-66" value="" style="html=1;points=[];perimeter=orthogonalPerimeter;rounded=0;shadow=0;comic=0;labelBackgroundColor=none;strokeWidth=1;fontFamily=Verdana;fontSize=12;align=center;" parent="1" vertex="1">
          <mxGeometry x="1625" y="320.5" width="10" height="110" as="geometry"/>
        </mxCell>
        <mxCell id="ohoU1M737tt2WUhFRXQZ-68" value="" style="edgeStyle=elbowEdgeStyle;rounded=0;orthogonalLoop=1;jettySize=auto;elbow=vertical;html=1;startArrow=none;startFill=0;endArrow=block;endFill=1;strokeColor=#000000;" parent="1" edge="1">
          <mxGeometry relative="1" as="geometry">
            <mxPoint x="1229.9999999999995" y="610.3529411764707" as="sourcePoint"/>
            <mxPoint x="1624.9999999999995" y="610.2647058823529" as="targetPoint"/>
          </mxGeometry>
        </mxCell>
        <mxCell id="ohoU1M737tt2WUhFRXQZ-69" value="用户确认支付" style="text;html=1;align=center;verticalAlign=middle;resizable=0;points=[];;labelBackgroundColor=#ffffff;" parent="ohoU1M737tt2WUhFRXQZ-68" vertex="1" connectable="0">
          <mxGeometry x="0.1047" y="-2" relative="1" as="geometry">
            <mxPoint x="1" as="offset"/>
          </mxGeometry>
        </mxCell>
        <mxCell id="ohoU1M737tt2WUhFRXQZ-71" style="edgeStyle=elbowEdgeStyle;rounded=0;orthogonalLoop=1;jettySize=auto;elbow=vertical;html=1;startArrow=none;startFill=0;endArrow=block;endFill=1;strokeColor=#000000;" parent="1" source="ohoU1M737tt2WUhFRXQZ-67" target="ohoU1M737tt2WUhFRXQZ-70" edge="1">
          <mxGeometry relative="1" as="geometry">
            <mxPoint x="1600" y="670.5" as="sourcePoint"/>
            <mxPoint x="1434.9999999999995" y="670.5294117647059" as="targetPoint"/>
          </mxGeometry>
        </mxCell>
        <mxCell id="ohoU1M737tt2WUhFRXQZ-72" value="支付参数通过SDK调起微信支付" style="text;html=1;align=center;verticalAlign=middle;resizable=0;points=[];;labelBackgroundColor=#ffffff;" parent="ohoU1M737tt2WUhFRXQZ-71" vertex="1" connectable="0">
          <mxGeometry x="-0.2277" y="-1" relative="1" as="geometry">
            <mxPoint x="-21" y="0.5" as="offset"/>
          </mxGeometry>
        </mxCell>
        <mxCell id="ohoU1M737tt2WUhFRXQZ-74" style="edgeStyle=elbowEdgeStyle;rounded=0;orthogonalLoop=1;jettySize=auto;elbow=vertical;html=1;startArrow=none;startFill=0;endArrow=block;endFill=1;strokeColor=#000000;" parent="1" edge="1">
          <mxGeometry relative="1" as="geometry">
            <mxPoint x="1424.9999999999995" y="690.5882352941178" as="sourcePoint"/>
            <mxPoint x="2034.9999999999995" y="690.5882352941178" as="targetPoint"/>
          </mxGeometry>
        </mxCell>
        <mxCell id="ohoU1M737tt2WUhFRXQZ-75" value="发起支付请求" style="text;html=1;align=center;verticalAlign=middle;resizable=0;points=[];;labelBackgroundColor=#ffffff;" parent="ohoU1M737tt2WUhFRXQZ-74" vertex="1" connectable="0">
          <mxGeometry x="0.1482" y="1" relative="1" as="geometry">
            <mxPoint x="-45.5" y="1" as="offset"/>
          </mxGeometry>
        </mxCell>
        <mxCell id="ohoU1M737tt2WUhFRXQZ-76" style="edgeStyle=elbowEdgeStyle;rounded=0;orthogonalLoop=1;jettySize=auto;elbow=vertical;html=1;startArrow=none;startFill=0;endArrow=block;endFill=1;strokeColor=#000000;" parent="1" edge="1">
          <mxGeometry relative="1" as="geometry">
            <mxPoint x="2034.9999999999995" y="720.5882352941178" as="sourcePoint"/>
            <mxPoint x="1424.9999999999995" y="720.5882352941178" as="targetPoint"/>
          </mxGeometry>
        </mxCell>
        <mxCell id="ohoU1M737tt2WUhFRXQZ-77" value="支付授权请求" style="text;html=1;align=center;verticalAlign=middle;resizable=0;points=[];;labelBackgroundColor=#ffffff;" parent="ohoU1M737tt2WUhFRXQZ-76" vertex="1" connectable="0">
          <mxGeometry x="0.0831" relative="1" as="geometry">
            <mxPoint as="offset"/>
          </mxGeometry>
        </mxCell>
        <mxCell id="ohoU1M737tt2WUhFRXQZ-82" style="edgeStyle=elbowEdgeStyle;rounded=0;orthogonalLoop=1;jettySize=auto;elbow=vertical;html=1;startArrow=none;startFill=0;endArrow=block;endFill=1;strokeColor=#000000;" parent="1" source="ohoU1M737tt2WUhFRXQZ-78" target="ohoU1M737tt2WUhFRXQZ-81" edge="1">
          <mxGeometry relative="1" as="geometry">
            <Array as="points">
              <mxPoint x="1960" y="800.5"/>
            </Array>
          </mxGeometry>
        </mxCell>
        <mxCell id="ohoU1M737tt2WUhFRXQZ-83" value="提交支付授权" style="text;html=1;align=center;verticalAlign=middle;resizable=0;points=[];;labelBackgroundColor=#ffffff;" parent="ohoU1M737tt2WUhFRXQZ-82" vertex="1" connectable="0">
          <mxGeometry x="0.7541" y="238" relative="1" as="geometry">
            <mxPoint x="-238" y="235" as="offset"/>
          </mxGeometry>
        </mxCell>
        <mxCell id="ohoU1M737tt2WUhFRXQZ-94" style="edgeStyle=elbowEdgeStyle;rounded=0;orthogonalLoop=1;jettySize=auto;elbow=vertical;html=1;startArrow=none;startFill=0;endArrow=block;endFill=1;strokeColor=#000000;" parent="1" target="ohoU1M737tt2WUhFRXQZ-93" edge="1">
          <mxGeometry relative="1" as="geometry">
            <mxPoint x="1424.9999999999995" y="900.3529411764707" as="sourcePoint"/>
            <mxPoint x="1624.9999999999995" y="900.3529411764707" as="targetPoint"/>
            <Array as="points">
              <mxPoint x="1590" y="910.5"/>
            </Array>
          </mxGeometry>
        </mxCell>
        <mxCell id="ohoU1M737tt2WUhFRXQZ-95" value="支付状态回调" style="text;html=1;align=center;verticalAlign=middle;resizable=0;points=[];;labelBackgroundColor=#ffffff;" parent="ohoU1M737tt2WUhFRXQZ-94" vertex="1" connectable="0">
          <mxGeometry x="-0.2735" y="-2" relative="1" as="geometry">
            <mxPoint x="22.5" y="-1" as="offset"/>
          </mxGeometry>
        </mxCell>
        <mxCell id="ohoU1M737tt2WUhFRXQZ-78" value="" style="html=1;points=[];perimeter=orthogonalPerimeter;rounded=0;shadow=0;comic=0;labelBackgroundColor=none;strokeWidth=1;fontFamily=Verdana;fontSize=12;align=center;" parent="1" vertex="1">
          <mxGeometry x="1415" y="770.5" width="10" height="250" as="geometry"/>
        </mxCell>
        <mxCell id="ohoU1M737tt2WUhFRXQZ-84" style="edgeStyle=elbowEdgeStyle;rounded=0;orthogonalLoop=1;jettySize=auto;elbow=vertical;html=1;startArrow=none;startFill=0;endArrow=block;endFill=1;strokeColor=#000000;" parent="1" edge="1">
          <mxGeometry relative="1" as="geometry">
            <mxPoint x="2034.9999999999995" y="830.4705882352941" as="sourcePoint"/>
            <mxPoint x="1424.9999999999995" y="830.4705882352941" as="targetPoint"/>
          </mxGeometry>
        </mxCell>
        <mxCell id="ohoU1M737tt2WUhFRXQZ-85" value="返回微信支付结果" style="text;html=1;align=center;verticalAlign=middle;resizable=0;points=[];;labelBackgroundColor=#ffffff;" parent="ohoU1M737tt2WUhFRXQZ-84" vertex="1" connectable="0">
          <mxGeometry x="0.1293" relative="1" as="geometry">
            <mxPoint x="29.5" as="offset"/>
          </mxGeometry>
        </mxCell>
        <mxCell id="ohoU1M737tt2WUhFRXQZ-87" style="edgeStyle=elbowEdgeStyle;rounded=0;orthogonalLoop=1;jettySize=auto;elbow=vertical;html=1;startArrow=none;startFill=0;endArrow=block;endFill=1;strokeColor=#000000;" parent="1" edge="1">
          <mxGeometry relative="1" as="geometry">
            <mxPoint x="2034.9999999999995" y="880.4705882352941" as="sourcePoint"/>
            <mxPoint x="1834.9999999999995" y="880.4705882352941" as="targetPoint"/>
          </mxGeometry>
        </mxCell>
        <mxCell id="ohoU1M737tt2WUhFRXQZ-88" value="返回微信支付结果" style="text;html=1;align=center;verticalAlign=middle;resizable=0;points=[];;labelBackgroundColor=#ffffff;" parent="ohoU1M737tt2WUhFRXQZ-87" vertex="1" connectable="0">
          <mxGeometry x="0.1969" y="1" relative="1" as="geometry">
            <mxPoint x="24.5" y="-1.5" as="offset"/>
          </mxGeometry>
        </mxCell>
        <mxCell id="ohoU1M737tt2WUhFRXQZ-89" value="" style="edgeStyle=elbowEdgeStyle;rounded=0;orthogonalLoop=1;jettySize=auto;elbow=vertical;html=1;startArrow=none;startFill=0;endArrow=block;endFill=1;strokeColor=#000000;" parent="1" edge="1">
          <mxGeometry relative="1" as="geometry">
            <mxPoint x="1834.9999999999995" y="920.5" as="sourcePoint"/>
            <mxPoint x="2034.9999999999995" y="920.5" as="targetPoint"/>
            <Array as="points">
              <mxPoint x="1920" y="920.5"/>
              <mxPoint x="1960" y="870.5"/>
            </Array>
          </mxGeometry>
        </mxCell>
        <mxCell id="ohoU1M737tt2WUhFRXQZ-90" value="返回结果接收情况" style="text;html=1;align=center;verticalAlign=middle;resizable=0;points=[];;labelBackgroundColor=#ffffff;" parent="ohoU1M737tt2WUhFRXQZ-89" vertex="1" connectable="0">
          <mxGeometry x="0.1318" y="1" relative="1" as="geometry">
            <mxPoint x="-8" y="1" as="offset"/>
          </mxGeometry>
        </mxCell>
        <mxCell id="ohoU1M737tt2WUhFRXQZ-98" style="edgeStyle=elbowEdgeStyle;rounded=0;orthogonalLoop=1;jettySize=auto;elbow=vertical;html=1;startArrow=none;startFill=0;endArrow=block;endFill=1;strokeColor=#000000;" parent="1" source="ohoU1M737tt2WUhFRXQZ-93" target="ohoU1M737tt2WUhFRXQZ-96" edge="1">
          <mxGeometry relative="1" as="geometry">
            <Array as="points">
              <mxPoint x="1800" y="970.5"/>
            </Array>
          </mxGeometry>
        </mxCell>
        <mxCell id="ohoU1M737tt2WUhFRXQZ-99" value="查询支付结果" style="text;html=1;align=center;verticalAlign=middle;resizable=0;points=[];;labelBackgroundColor=#ffffff;" parent="ohoU1M737tt2WUhFRXQZ-98" vertex="1" connectable="0">
          <mxGeometry x="-0.2297" y="1" relative="1" as="geometry">
            <mxPoint x="12" y="1" as="offset"/>
          </mxGeometry>
        </mxCell>
        <mxCell id="ohoU1M737tt2WUhFRXQZ-100" style="edgeStyle=elbowEdgeStyle;rounded=0;orthogonalLoop=1;jettySize=auto;elbow=vertical;html=1;startArrow=none;startFill=0;endArrow=block;endFill=1;strokeColor=#000000;" parent="1" edge="1">
          <mxGeometry relative="1" as="geometry">
            <mxPoint x="1824.9999999999995" y="1010.5294117647059" as="sourcePoint"/>
            <mxPoint x="1634.9999999999995" y="1010.5294117647059" as="targetPoint"/>
          </mxGeometry>
        </mxCell>
        <mxCell id="ohoU1M737tt2WUhFRXQZ-101" value="返回支付结果" style="text;html=1;align=center;verticalAlign=middle;resizable=0;points=[];;labelBackgroundColor=#ffffff;" parent="ohoU1M737tt2WUhFRXQZ-100" vertex="1" connectable="0">
          <mxGeometry x="-0.2277" y="-1" relative="1" as="geometry">
            <mxPoint x="-21" y="0.5" as="offset"/>
          </mxGeometry>
        </mxCell>
        <mxCell id="ohoU1M737tt2WUhFRXQZ-109" style="edgeStyle=elbowEdgeStyle;rounded=0;orthogonalLoop=1;jettySize=auto;elbow=vertical;html=1;startArrow=none;startFill=0;endArrow=block;endFill=1;strokeColor=#000000;" parent="1" edge="1">
          <mxGeometry relative="1" as="geometry">
            <mxPoint x="1634.9999999999995" y="1090.5588235294117" as="sourcePoint"/>
            <mxPoint x="1824.9999999999995" y="1090.5588235294117" as="targetPoint"/>
          </mxGeometry>
        </mxCell>
        <mxCell id="ohoU1M737tt2WUhFRXQZ-110" value="请求发分规则配置页" style="text;html=1;align=center;verticalAlign=middle;resizable=0;points=[];;labelBackgroundColor=#ffffff;" parent="ohoU1M737tt2WUhFRXQZ-109" vertex="1" connectable="0">
          <mxGeometry x="-0.2907" y="-1" relative="1" as="geometry">
            <mxPoint x="18" y="-1" as="offset"/>
          </mxGeometry>
        </mxCell>
        <mxCell id="ohoU1M737tt2WUhFRXQZ-107" value="" style="html=1;points=[];perimeter=orthogonalPerimeter;rounded=0;shadow=0;comic=0;labelBackgroundColor=none;strokeWidth=1;fontFamily=Verdana;fontSize=12;align=center;" parent="1" vertex="1">
          <mxGeometry x="1625" y="1060.5" width="10" height="170" as="geometry"/>
        </mxCell>
        <mxCell id="ohoU1M737tt2WUhFRXQZ-108" value="" style="html=1;points=[];perimeter=orthogonalPerimeter;rounded=0;shadow=0;comic=0;labelBackgroundColor=none;strokeWidth=1;fontFamily=Verdana;fontSize=12;align=center;" parent="1" vertex="1">
          <mxGeometry x="1825" y="1060.5" width="10" height="170" as="geometry"/>
        </mxCell>
        <mxCell id="ohoU1M737tt2WUhFRXQZ-111" style="edgeStyle=elbowEdgeStyle;rounded=0;orthogonalLoop=1;jettySize=auto;elbow=vertical;html=1;startArrow=none;startFill=0;endArrow=block;endFill=1;strokeColor=#000000;" parent="1" edge="1">
          <mxGeometry relative="1" as="geometry">
            <mxPoint x="1824.9999999999995" y="1129.5294117647059" as="sourcePoint"/>
            <mxPoint x="1634.9999999999995" y="1129.5294117647059" as="targetPoint"/>
          </mxGeometry>
        </mxCell>
        <mxCell id="ohoU1M737tt2WUhFRXQZ-112" value="返回发分规则配置页" style="text;html=1;align=center;verticalAlign=middle;resizable=0;points=[];;labelBackgroundColor=#ffffff;" parent="ohoU1M737tt2WUhFRXQZ-111" vertex="1" connectable="0">
          <mxGeometry x="-0.2277" y="-1" relative="1" as="geometry">
            <mxPoint x="-21" y="0.5" as="offset"/>
          </mxGeometry>
        </mxCell>
        <mxCell id="ohoU1M737tt2WUhFRXQZ-113" style="edgeStyle=elbowEdgeStyle;rounded=0;orthogonalLoop=1;jettySize=auto;elbow=vertical;html=1;startArrow=none;startFill=0;endArrow=block;endFill=1;strokeColor=#000000;" parent="1" edge="1">
          <mxGeometry relative="1" as="geometry">
            <mxPoint x="1824.9999999999995" y="350.5588235294117" as="sourcePoint"/>
            <mxPoint x="1634.9999999999995" y="350.5588235294117" as="targetPoint"/>
          </mxGeometry>
        </mxCell>
        <mxCell id="ohoU1M737tt2WUhFRXQZ-114" value="返回进件页面" style="text;html=1;align=center;verticalAlign=middle;resizable=0;points=[];;labelBackgroundColor=#ffffff;" parent="ohoU1M737tt2WUhFRXQZ-113" vertex="1" connectable="0">
          <mxGeometry x="-0.3389" y="2" relative="1" as="geometry">
            <mxPoint x="-32" y="-3" as="offset"/>
          </mxGeometry>
        </mxCell>
        <mxCell id="ohoU1M737tt2WUhFRXQZ-117" style="edgeStyle=elbowEdgeStyle;rounded=0;orthogonalLoop=1;jettySize=auto;elbow=vertical;html=1;startArrow=none;startFill=0;endArrow=block;endFill=1;strokeColor=#000000;" parent="1" edge="1">
          <mxGeometry relative="1" as="geometry">
            <mxPoint x="1824.9999999999995" y="490.52941176470586" as="sourcePoint"/>
            <mxPoint x="1634.9999999999995" y="490.52941176470586" as="targetPoint"/>
          </mxGeometry>
        </mxCell>
        <mxCell id="ohoU1M737tt2WUhFRXQZ-118" value="返回积分充值页面" style="text;html=1;align=center;verticalAlign=middle;resizable=0;points=[];;labelBackgroundColor=#ffffff;" parent="ohoU1M737tt2WUhFRXQZ-117" vertex="1" connectable="0">
          <mxGeometry x="-0.2277" y="-1" relative="1" as="geometry">
            <mxPoint x="-21" y="0.5" as="offset"/>
          </mxGeometry>
        </mxCell>
        <mxCell id="ohoU1M737tt2WUhFRXQZ-121" style="edgeStyle=elbowEdgeStyle;rounded=0;orthogonalLoop=1;jettySize=auto;elbow=vertical;html=1;startArrow=none;startFill=0;endArrow=block;endFill=1;strokeColor=#000000;" parent="1" edge="1">
          <mxGeometry relative="1" as="geometry">
            <mxPoint x="1634.9999999999995" y="1180.5588235294117" as="sourcePoint"/>
            <mxPoint x="1824.9999999999995" y="1180.5588235294117" as="targetPoint"/>
          </mxGeometry>
        </mxCell>
        <mxCell id="ohoU1M737tt2WUhFRXQZ-122" value="上送发分规则配置信息" style="text;html=1;align=center;verticalAlign=middle;resizable=0;points=[];;labelBackgroundColor=#ffffff;" parent="ohoU1M737tt2WUhFRXQZ-121" vertex="1" connectable="0">
          <mxGeometry x="-0.2907" y="-1" relative="1" as="geometry">
            <mxPoint x="18" y="-1" as="offset"/>
          </mxGeometry>
        </mxCell>
        <mxCell id="ohoU1M737tt2WUhFRXQZ-123" style="edgeStyle=elbowEdgeStyle;rounded=0;orthogonalLoop=1;jettySize=auto;elbow=vertical;html=1;startArrow=none;startFill=0;endArrow=block;endFill=1;strokeColor=#000000;" parent="1" edge="1">
          <mxGeometry relative="1" as="geometry">
            <mxPoint x="1824.9999999999995" y="1211.0294117647059" as="sourcePoint"/>
            <mxPoint x="1634.9999999999995" y="1211.0294117647059" as="targetPoint"/>
          </mxGeometry>
        </mxCell>
        <mxCell id="ohoU1M737tt2WUhFRXQZ-124" value="返回配置结果 /&amp;nbsp;发分收款码" style="text;html=1;align=center;verticalAlign=middle;resizable=0;points=[];;labelBackgroundColor=#ffffff;" parent="ohoU1M737tt2WUhFRXQZ-123" vertex="1" connectable="0">
          <mxGeometry x="-0.2277" y="-1" relative="1" as="geometry">
            <mxPoint x="-21" y="0.5" as="offset"/>
          </mxGeometry>
        </mxCell>
        <mxCell id="ohoU1M737tt2WUhFRXQZ-125" value="" style="html=1;points=[];perimeter=orthogonalPerimeter;rounded=0;shadow=0;comic=0;labelBackgroundColor=none;strokeWidth=1;fontFamily=Verdana;fontSize=12;align=center;" parent="1" vertex="1">
          <mxGeometry x="1825" y="1250" width="10" height="60" as="geometry"/>
        </mxCell>
        <mxCell id="ohoU1M737tt2WUhFRXQZ-129" style="edgeStyle=elbowEdgeStyle;rounded=0;orthogonalLoop=1;jettySize=auto;elbow=vertical;html=1;startArrow=none;startFill=0;endArrow=block;endFill=1;strokeColor=#000000;" parent="1" edge="1">
          <mxGeometry relative="1" as="geometry">
            <mxPoint x="1824.9999999999995" y="1273.5294117647059" as="sourcePoint"/>
            <mxPoint x="1634.9999999999995" y="1273.5294117647059" as="targetPoint"/>
          </mxGeometry>
        </mxCell>
        <mxCell id="ohoU1M737tt2WUhFRXQZ-130" value="商户审核结果通知" style="text;html=1;align=center;verticalAlign=middle;resizable=0;points=[];;labelBackgroundColor=#ffffff;" parent="ohoU1M737tt2WUhFRXQZ-129" vertex="1" connectable="0">
          <mxGeometry x="-0.2277" y="-1" relative="1" as="geometry">
            <mxPoint x="-21" y="0.5" as="offset"/>
          </mxGeometry>
        </mxCell>
        <mxCell id="ohoU1M737tt2WUhFRXQZ-135" style="edgeStyle=elbowEdgeStyle;rounded=0;orthogonalLoop=1;jettySize=auto;elbow=vertical;html=1;startArrow=none;startFill=0;endArrow=block;endFill=1;strokeColor=#000000;" parent="1" edge="1">
          <mxGeometry relative="1" as="geometry">
            <mxPoint x="1229.9999999999995" y="1290.0588235294117" as="sourcePoint"/>
            <mxPoint x="1624.9999999999995" y="1290.0588235294117" as="targetPoint"/>
          </mxGeometry>
        </mxCell>
        <mxCell id="ohoU1M737tt2WUhFRXQZ-136" value="查看审核情况" style="text;html=1;align=center;verticalAlign=middle;resizable=0;points=[];;labelBackgroundColor=#ffffff;" parent="ohoU1M737tt2WUhFRXQZ-135" vertex="1" connectable="0">
          <mxGeometry x="0.2354" y="4" relative="1" as="geometry">
            <mxPoint x="-24.5" y="3.5" as="offset"/>
          </mxGeometry>
        </mxCell>
      </root>
    </mxGraphModel>
  </diagram>
  <diagram id="bMY9-QfOwMNVLJbTpqGK" name="场景2-商户发券">
    <mxGraphModel dx="595" dy="799" grid="1" gridSize="10" guides="1" tooltips="1" connect="1" arrows="1" fold="1" page="1" pageScale="1" pageWidth="827" pageHeight="1169" math="0" shadow="0">
      <root>
        <mxCell id="f14kH1LMWMZTGwarPplp-0"/>
        <mxCell id="f14kH1LMWMZTGwarPplp-1" parent="f14kH1LMWMZTGwarPplp-0"/>
        <mxCell id="OIXLIAgvvBH32zFMS5uC-0" value="万金友付服务端" style="shape=umlLifeline;perimeter=lifelinePerimeter;whiteSpace=wrap;html=1;container=1;collapsible=0;recursiveResize=0;outlineConnect=0;rounded=1;shadow=0;comic=0;labelBackgroundColor=none;strokeWidth=1;fontFamily=Verdana;fontSize=12;align=center;" parent="f14kH1LMWMZTGwarPplp-1" vertex="1">
          <mxGeometry x="1385" y="60" width="100" height="560" as="geometry"/>
        </mxCell>
        <mxCell id="pGGh3mfazDBcFypq_tjy-3" value="" style="html=1;points=[];perimeter=orthogonalPerimeter;rounded=0;shadow=0;comic=0;labelBackgroundColor=none;strokeWidth=1;fontFamily=Verdana;fontSize=12;align=center;" parent="OIXLIAgvvBH32zFMS5uC-0" vertex="1">
          <mxGeometry x="45" y="150" width="10" height="80" as="geometry"/>
        </mxCell>
        <mxCell id="pGGh3mfazDBcFypq_tjy-20" value="" style="html=1;points=[];perimeter=orthogonalPerimeter;rounded=0;shadow=0;comic=0;labelBackgroundColor=none;strokeWidth=1;fontFamily=Verdana;fontSize=12;align=center;" parent="OIXLIAgvvBH32zFMS5uC-0" vertex="1">
          <mxGeometry x="45" y="270" width="10" height="130" as="geometry"/>
        </mxCell>
        <mxCell id="pGGh3mfazDBcFypq_tjy-28" value="" style="html=1;points=[];perimeter=orthogonalPerimeter;rounded=0;shadow=0;comic=0;labelBackgroundColor=none;strokeWidth=1;fontFamily=Verdana;fontSize=12;align=center;" parent="OIXLIAgvvBH32zFMS5uC-0" vertex="1">
          <mxGeometry x="45" y="430" width="10" height="80" as="geometry"/>
        </mxCell>
        <mxCell id="OIXLIAgvvBH32zFMS5uC-11" value="万金友付商户" style="shape=umlActor;verticalLabelPosition=bottom;labelBackgroundColor=#ffffff;verticalAlign=top;html=1;outlineConnect=0;" parent="f14kH1LMWMZTGwarPplp-1" vertex="1">
          <mxGeometry x="930" y="40" width="30" height="60" as="geometry"/>
        </mxCell>
        <mxCell id="OIXLIAgvvBH32zFMS5uC-12" value="" style="endArrow=none;dashed=1;html=1;strokeColor=#000000;entryX=0.5;entryY=0.5;entryDx=0;entryDy=0;entryPerimeter=0;" parent="f14kH1LMWMZTGwarPplp-1" target="OIXLIAgvvBH32zFMS5uC-11" edge="1">
          <mxGeometry width="50" height="50" relative="1" as="geometry">
            <mxPoint x="945" y="618.3333333333334" as="sourcePoint"/>
            <mxPoint x="980" y="140" as="targetPoint"/>
          </mxGeometry>
        </mxCell>
        <mxCell id="pGGh3mfazDBcFypq_tjy-1" style="edgeStyle=orthogonalEdgeStyle;rounded=0;orthogonalLoop=1;jettySize=auto;html=1;" parent="f14kH1LMWMZTGwarPplp-1" source="OIXLIAgvvBH32zFMS5uC-21" target="OIXLIAgvvBH32zFMS5uC-23" edge="1">
          <mxGeometry relative="1" as="geometry">
            <Array as="points">
              <mxPoint x="1120" y="180"/>
              <mxPoint x="1120" y="180"/>
            </Array>
          </mxGeometry>
        </mxCell>
        <mxCell id="pGGh3mfazDBcFypq_tjy-2" value="点击优惠券模板，点击新增券模板" style="text;html=1;align=center;verticalAlign=middle;resizable=0;points=[];;labelBackgroundColor=#ffffff;" parent="pGGh3mfazDBcFypq_tjy-1" vertex="1" connectable="0">
          <mxGeometry x="-0.1674" y="-1" relative="1" as="geometry">
            <mxPoint x="16" y="-1" as="offset"/>
          </mxGeometry>
        </mxCell>
        <mxCell id="OIXLIAgvvBH32zFMS5uC-21" value="" style="html=1;points=[];perimeter=orthogonalPerimeter;rounded=0;shadow=0;comic=0;labelBackgroundColor=none;strokeWidth=1;fontFamily=Verdana;fontSize=12;align=center;" parent="f14kH1LMWMZTGwarPplp-1" vertex="1">
          <mxGeometry x="940" y="151" width="10" height="419" as="geometry"/>
        </mxCell>
        <mxCell id="OIXLIAgvvBH32zFMS5uC-22" value="万金友付商户&lt;br&gt;客户端" style="shape=umlLifeline;perimeter=lifelinePerimeter;whiteSpace=wrap;html=1;container=1;collapsible=0;recursiveResize=0;outlineConnect=0;rounded=1;shadow=0;comic=0;labelBackgroundColor=none;strokeWidth=1;fontFamily=Verdana;fontSize=12;align=center;" parent="f14kH1LMWMZTGwarPplp-1" vertex="1">
          <mxGeometry x="1185" y="60" width="100" height="560" as="geometry"/>
        </mxCell>
        <mxCell id="OIXLIAgvvBH32zFMS5uC-23" value="" style="html=1;points=[];perimeter=orthogonalPerimeter;rounded=0;shadow=0;comic=0;labelBackgroundColor=none;strokeWidth=1;fontFamily=Verdana;fontSize=12;align=center;" parent="OIXLIAgvvBH32zFMS5uC-22" vertex="1">
          <mxGeometry x="45" y="100" width="10" height="130" as="geometry"/>
        </mxCell>
        <mxCell id="pGGh3mfazDBcFypq_tjy-17" value="" style="html=1;points=[];perimeter=orthogonalPerimeter;rounded=0;shadow=0;comic=0;labelBackgroundColor=none;strokeWidth=1;fontFamily=Verdana;fontSize=12;align=center;" parent="OIXLIAgvvBH32zFMS5uC-22" vertex="1">
          <mxGeometry x="45" y="270" width="10" height="130" as="geometry"/>
        </mxCell>
        <mxCell id="pGGh3mfazDBcFypq_tjy-6" style="edgeStyle=orthogonalEdgeStyle;rounded=0;orthogonalLoop=1;jettySize=auto;html=1;" parent="f14kH1LMWMZTGwarPplp-1" source="OIXLIAgvvBH32zFMS5uC-21" edge="1">
          <mxGeometry relative="1" as="geometry">
            <mxPoint x="1015" y="209.83333333333337" as="sourcePoint"/>
            <mxPoint x="1230" y="209.83333333333337" as="targetPoint"/>
            <Array as="points">
              <mxPoint x="1050" y="210"/>
              <mxPoint x="1050" y="210"/>
            </Array>
          </mxGeometry>
        </mxCell>
        <mxCell id="pGGh3mfazDBcFypq_tjy-7" value="&amp;nbsp;输入券模板信息，并确认创建" style="text;html=1;align=center;verticalAlign=middle;resizable=0;points=[];;labelBackgroundColor=#ffffff;" parent="pGGh3mfazDBcFypq_tjy-6" vertex="1" connectable="0">
          <mxGeometry x="-0.1674" y="-1" relative="1" as="geometry">
            <mxPoint x="16" y="-1" as="offset"/>
          </mxGeometry>
        </mxCell>
        <mxCell id="pGGh3mfazDBcFypq_tjy-9" style="edgeStyle=orthogonalEdgeStyle;rounded=0;orthogonalLoop=1;jettySize=auto;html=1;" parent="f14kH1LMWMZTGwarPplp-1" source="OIXLIAgvvBH32zFMS5uC-23" target="pGGh3mfazDBcFypq_tjy-3" edge="1">
          <mxGeometry relative="1" as="geometry">
            <Array as="points">
              <mxPoint x="1350" y="230"/>
              <mxPoint x="1350" y="230"/>
            </Array>
          </mxGeometry>
        </mxCell>
        <mxCell id="pGGh3mfazDBcFypq_tjy-10" value="创建券模板" style="text;html=1;align=center;verticalAlign=middle;resizable=0;points=[];;labelBackgroundColor=#ffffff;" parent="pGGh3mfazDBcFypq_tjy-9" vertex="1" connectable="0">
          <mxGeometry x="0.1614" y="-38" relative="1" as="geometry">
            <mxPoint x="-20" y="-38" as="offset"/>
          </mxGeometry>
        </mxCell>
        <mxCell id="pGGh3mfazDBcFypq_tjy-11" style="edgeStyle=orthogonalEdgeStyle;rounded=0;orthogonalLoop=1;jettySize=auto;html=1;" parent="f14kH1LMWMZTGwarPplp-1" source="pGGh3mfazDBcFypq_tjy-3" target="OIXLIAgvvBH32zFMS5uC-23" edge="1">
          <mxGeometry relative="1" as="geometry">
            <Array as="points">
              <mxPoint x="1280" y="265"/>
              <mxPoint x="1280" y="265"/>
            </Array>
          </mxGeometry>
        </mxCell>
        <mxCell id="pGGh3mfazDBcFypq_tjy-12" value="券模板创建成功" style="text;html=1;align=center;verticalAlign=middle;resizable=0;points=[];;labelBackgroundColor=#ffffff;" parent="pGGh3mfazDBcFypq_tjy-11" vertex="1" connectable="0">
          <mxGeometry x="0.5754" y="38" relative="1" as="geometry">
            <mxPoint x="50" y="-38" as="offset"/>
          </mxGeometry>
        </mxCell>
        <mxCell id="pGGh3mfazDBcFypq_tjy-18" style="edgeStyle=orthogonalEdgeStyle;rounded=0;orthogonalLoop=1;jettySize=auto;html=1;" parent="f14kH1LMWMZTGwarPplp-1" source="OIXLIAgvvBH32zFMS5uC-21" edge="1">
          <mxGeometry relative="1" as="geometry">
            <mxPoint x="1015" y="359.83333333333337" as="sourcePoint"/>
            <mxPoint x="1230" y="359.83333333333337" as="targetPoint"/>
            <Array as="points">
              <mxPoint x="1040" y="360"/>
              <mxPoint x="1040" y="360"/>
            </Array>
          </mxGeometry>
        </mxCell>
        <mxCell id="pGGh3mfazDBcFypq_tjy-19" value="点击计划参与的活动类型" style="text;html=1;align=center;verticalAlign=middle;resizable=0;points=[];;labelBackgroundColor=#ffffff;" parent="pGGh3mfazDBcFypq_tjy-18" vertex="1" connectable="0">
          <mxGeometry x="-0.1674" y="-1" relative="1" as="geometry">
            <mxPoint x="16" y="-1" as="offset"/>
          </mxGeometry>
        </mxCell>
        <mxCell id="pGGh3mfazDBcFypq_tjy-21" style="edgeStyle=orthogonalEdgeStyle;rounded=0;orthogonalLoop=1;jettySize=auto;html=1;" parent="f14kH1LMWMZTGwarPplp-1" edge="1">
          <mxGeometry relative="1" as="geometry">
            <mxPoint x="1240" y="419.8333333333335" as="sourcePoint"/>
            <mxPoint x="1430" y="419.8333333333335" as="targetPoint"/>
            <Array as="points">
              <mxPoint x="1410" y="420"/>
              <mxPoint x="1410" y="420"/>
            </Array>
          </mxGeometry>
        </mxCell>
        <mxCell id="pGGh3mfazDBcFypq_tjy-22" value="提交活动参与申请" style="text;html=1;align=center;verticalAlign=middle;resizable=0;points=[];;labelBackgroundColor=#ffffff;" parent="pGGh3mfazDBcFypq_tjy-21" vertex="1" connectable="0">
          <mxGeometry x="-0.1674" y="-1" relative="1" as="geometry">
            <mxPoint x="16" y="-1" as="offset"/>
          </mxGeometry>
        </mxCell>
        <mxCell id="pGGh3mfazDBcFypq_tjy-23" style="edgeStyle=orthogonalEdgeStyle;rounded=0;orthogonalLoop=1;jettySize=auto;html=1;" parent="f14kH1LMWMZTGwarPplp-1" source="OIXLIAgvvBH32zFMS5uC-21" edge="1">
          <mxGeometry relative="1" as="geometry">
            <mxPoint x="1015.3333333333335" y="389.8333333333335" as="sourcePoint"/>
            <mxPoint x="1230.3333333333335" y="389.8333333333335" as="targetPoint"/>
            <Array as="points">
              <mxPoint x="1030" y="390"/>
              <mxPoint x="1030" y="390"/>
            </Array>
          </mxGeometry>
        </mxCell>
        <mxCell id="pGGh3mfazDBcFypq_tjy-24" value="输入参与券模板与投放数量，并确认申请" style="text;html=1;align=center;verticalAlign=middle;resizable=0;points=[];;labelBackgroundColor=#ffffff;" parent="pGGh3mfazDBcFypq_tjy-23" vertex="1" connectable="0">
          <mxGeometry x="-0.1674" y="-1" relative="1" as="geometry">
            <mxPoint x="13.5" y="-1" as="offset"/>
          </mxGeometry>
        </mxCell>
        <mxCell id="pGGh3mfazDBcFypq_tjy-25" style="edgeStyle=orthogonalEdgeStyle;rounded=0;orthogonalLoop=1;jettySize=auto;html=1;" parent="f14kH1LMWMZTGwarPplp-1" edge="1">
          <mxGeometry relative="1" as="geometry">
            <mxPoint x="1430" y="449.83333333333337" as="sourcePoint"/>
            <mxPoint x="1240" y="449.83333333333337" as="targetPoint"/>
            <Array as="points">
              <mxPoint x="1280" y="450"/>
              <mxPoint x="1280" y="450"/>
            </Array>
          </mxGeometry>
        </mxCell>
        <mxCell id="pGGh3mfazDBcFypq_tjy-26" value="申请提交成功" style="text;html=1;align=center;verticalAlign=middle;resizable=0;points=[];;labelBackgroundColor=#ffffff;" parent="pGGh3mfazDBcFypq_tjy-25" vertex="1" connectable="0">
          <mxGeometry x="0.5754" y="38" relative="1" as="geometry">
            <mxPoint x="59.5" y="-38" as="offset"/>
          </mxGeometry>
        </mxCell>
        <mxCell id="pGGh3mfazDBcFypq_tjy-27" value="" style="html=1;points=[];perimeter=orthogonalPerimeter;rounded=0;shadow=0;comic=0;labelBackgroundColor=none;strokeWidth=1;fontFamily=Verdana;fontSize=12;align=center;" parent="f14kH1LMWMZTGwarPplp-1" vertex="1">
          <mxGeometry x="1230" y="490" width="10" height="80" as="geometry"/>
        </mxCell>
        <mxCell id="pGGh3mfazDBcFypq_tjy-29" style="edgeStyle=orthogonalEdgeStyle;rounded=0;orthogonalLoop=1;jettySize=auto;html=1;" parent="f14kH1LMWMZTGwarPplp-1" source="pGGh3mfazDBcFypq_tjy-28" target="pGGh3mfazDBcFypq_tjy-27" edge="1">
          <mxGeometry relative="1" as="geometry">
            <Array as="points">
              <mxPoint x="1370" y="520"/>
              <mxPoint x="1370" y="520"/>
            </Array>
          </mxGeometry>
        </mxCell>
        <mxCell id="pGGh3mfazDBcFypq_tjy-31" value="审核通过推送" style="text;html=1;align=center;verticalAlign=middle;resizable=0;points=[];;labelBackgroundColor=#ffffff;" parent="pGGh3mfazDBcFypq_tjy-29" vertex="1" connectable="0">
          <mxGeometry x="0.1544" y="-1" relative="1" as="geometry">
            <mxPoint x="10" y="1" as="offset"/>
          </mxGeometry>
        </mxCell>
      </root>
    </mxGraphModel>
  </diagram>
  <diagram id="67HozwTrowGF9J8chNFi" name="场景3-客户扫社区商业收款码支付">
    <mxGraphModel dx="1422" dy="799" grid="1" gridSize="10" guides="1" tooltips="1" connect="1" arrows="1" fold="1" page="1" pageScale="1" pageWidth="827" pageHeight="1169" math="0" shadow="0">
      <root>
        <mxCell id="POtOXzE_D4GUK6vgggto-0"/>
        <mxCell id="POtOXzE_D4GUK6vgggto-1" parent="POtOXzE_D4GUK6vgggto-0"/>
        <mxCell id="W_6jnHVBBPaOy01iMl-A-6" value="万金友付服务端" style="shape=umlLifeline;perimeter=lifelinePerimeter;whiteSpace=wrap;html=1;container=1;collapsible=0;recursiveResize=0;outlineConnect=0;rounded=1;shadow=0;comic=0;labelBackgroundColor=none;strokeWidth=1;fontFamily=Verdana;fontSize=12;align=center;" parent="POtOXzE_D4GUK6vgggto-1" vertex="1">
          <mxGeometry x="450" y="50" width="100" height="1070" as="geometry"/>
        </mxCell>
        <mxCell id="W_6jnHVBBPaOy01iMl-A-7" value="" style="html=1;points=[];perimeter=orthogonalPerimeter;rounded=0;shadow=0;comic=0;labelBackgroundColor=none;strokeWidth=1;fontFamily=Verdana;fontSize=12;align=center;" parent="W_6jnHVBBPaOy01iMl-A-6" vertex="1">
          <mxGeometry x="45" y="71" width="10" height="60" as="geometry"/>
        </mxCell>
        <mxCell id="W_6jnHVBBPaOy01iMl-A-58" value="" style="html=1;points=[];perimeter=orthogonalPerimeter;rounded=0;shadow=0;comic=0;labelBackgroundColor=none;strokeWidth=1;fontFamily=Verdana;fontSize=12;align=center;" parent="W_6jnHVBBPaOy01iMl-A-6" vertex="1">
          <mxGeometry x="45" y="161" width="10" height="329" as="geometry"/>
        </mxCell>
        <mxCell id="W_6jnHVBBPaOy01iMl-A-73" value="" style="html=1;points=[];perimeter=orthogonalPerimeter;rounded=0;shadow=0;comic=0;labelBackgroundColor=none;strokeWidth=1;fontFamily=Verdana;fontSize=12;align=center;" parent="W_6jnHVBBPaOy01iMl-A-6" vertex="1">
          <mxGeometry x="45" y="660" width="10" height="370" as="geometry"/>
        </mxCell>
        <mxCell id="W_6jnHVBBPaOy01iMl-A-21" value="微信服务端" style="shape=umlLifeline;perimeter=lifelinePerimeter;whiteSpace=wrap;html=1;container=1;collapsible=0;recursiveResize=0;outlineConnect=0;rounded=1;shadow=0;comic=0;labelBackgroundColor=none;strokeWidth=1;fontFamily=Verdana;fontSize=12;align=center;" parent="POtOXzE_D4GUK6vgggto-1" vertex="1">
          <mxGeometry x="660" y="50" width="100" height="1070" as="geometry"/>
        </mxCell>
        <mxCell id="W_6jnHVBBPaOy01iMl-A-47" value="" style="html=1;points=[];perimeter=orthogonalPerimeter;rounded=0;shadow=0;comic=0;labelBackgroundColor=none;strokeWidth=1;fontFamily=Verdana;fontSize=12;align=center;" parent="W_6jnHVBBPaOy01iMl-A-21" vertex="1">
          <mxGeometry x="45" y="420" width="10" height="66" as="geometry"/>
        </mxCell>
        <mxCell id="IINKS8qUpg1Cit4TUINT-8" value="" style="html=1;points=[];perimeter=orthogonalPerimeter;rounded=0;shadow=0;comic=0;labelBackgroundColor=none;strokeWidth=1;fontFamily=Verdana;fontSize=12;align=center;" parent="W_6jnHVBBPaOy01iMl-A-21" vertex="1">
          <mxGeometry x="45" y="500" width="10" height="250" as="geometry"/>
        </mxCell>
        <mxCell id="W_6jnHVBBPaOy01iMl-A-24" value="微信客户端" style="shape=umlLifeline;perimeter=lifelinePerimeter;whiteSpace=wrap;html=1;container=1;collapsible=0;recursiveResize=0;outlineConnect=0;rounded=1;shadow=0;comic=0;labelBackgroundColor=none;strokeWidth=1;fontFamily=Verdana;fontSize=12;align=center;" parent="POtOXzE_D4GUK6vgggto-1" vertex="1">
          <mxGeometry x="230" y="50" width="100" height="1070" as="geometry"/>
        </mxCell>
        <mxCell id="W_6jnHVBBPaOy01iMl-A-25" value="" style="html=1;points=[];perimeter=orthogonalPerimeter;rounded=0;shadow=0;comic=0;labelBackgroundColor=none;strokeWidth=1;fontFamily=Verdana;fontSize=12;align=center;" parent="W_6jnHVBBPaOy01iMl-A-24" vertex="1">
          <mxGeometry x="45" y="141" width="10" height="349" as="geometry"/>
        </mxCell>
        <mxCell id="W_6jnHVBBPaOy01iMl-A-63" value="" style="html=1;points=[];perimeter=orthogonalPerimeter;rounded=0;shadow=0;comic=0;labelBackgroundColor=none;strokeWidth=1;fontFamily=Verdana;fontSize=12;align=center;" parent="W_6jnHVBBPaOy01iMl-A-24" vertex="1">
          <mxGeometry x="45" y="500" width="10" height="530" as="geometry"/>
        </mxCell>
        <mxCell id="W_6jnHVBBPaOy01iMl-A-28" value="" style="html=1;verticalAlign=bottom;endArrow=block;labelBackgroundColor=none;fontFamily=Verdana;fontSize=12;elbow=vertical;exitX=1.059;exitY=0.094;exitDx=0;exitDy=0;exitPerimeter=0;" parent="POtOXzE_D4GUK6vgggto-1" edge="1">
          <mxGeometry relative="1" as="geometry">
            <mxPoint x="90.58999999999992" y="209.77999999999997" as="sourcePoint"/>
            <mxPoint x="275" y="209.77999999999997" as="targetPoint"/>
          </mxGeometry>
        </mxCell>
        <mxCell id="W_6jnHVBBPaOy01iMl-A-29" value="扫描收款码，输入金额&lt;br&gt;确认支付" style="text;html=1;align=center;verticalAlign=middle;resizable=0;points=[];;labelBackgroundColor=#ffffff;" parent="W_6jnHVBBPaOy01iMl-A-28" vertex="1" connectable="0">
          <mxGeometry y="-10" relative="1" as="geometry">
            <mxPoint x="4.5" y="-12" as="offset"/>
          </mxGeometry>
        </mxCell>
        <mxCell id="W_6jnHVBBPaOy01iMl-A-59" value="" style="html=1;verticalAlign=bottom;endArrow=block;labelBackgroundColor=none;fontFamily=Verdana;fontSize=12;elbow=vertical;" parent="POtOXzE_D4GUK6vgggto-1" edge="1">
          <mxGeometry relative="1" as="geometry">
            <mxPoint x="495" y="160" as="sourcePoint"/>
            <mxPoint x="90" y="160" as="targetPoint"/>
          </mxGeometry>
        </mxCell>
        <mxCell id="W_6jnHVBBPaOy01iMl-A-60" value="生成商户收款码，商户展示给用户" style="text;html=1;align=center;verticalAlign=middle;resizable=0;points=[];;labelBackgroundColor=#ffffff;" parent="W_6jnHVBBPaOy01iMl-A-59" vertex="1" connectable="0">
          <mxGeometry y="-10" relative="1" as="geometry">
            <mxPoint x="-10" y="9" as="offset"/>
          </mxGeometry>
        </mxCell>
        <mxCell id="GIU8r86tIvMhfs9YMdke-0" value="微信支付客户" style="shape=umlActor;verticalLabelPosition=bottom;labelBackgroundColor=#ffffff;verticalAlign=top;html=1;outlineConnect=0;" parent="POtOXzE_D4GUK6vgggto-1" vertex="1">
          <mxGeometry x="70" y="30" width="30" height="60" as="geometry"/>
        </mxCell>
        <mxCell id="GIU8r86tIvMhfs9YMdke-1" value="" style="endArrow=none;dashed=1;html=1;strokeColor=#000000;entryX=0.5;entryY=0.5;entryDx=0;entryDy=0;entryPerimeter=0;" parent="POtOXzE_D4GUK6vgggto-1" target="GIU8r86tIvMhfs9YMdke-0" edge="1">
          <mxGeometry width="50" height="50" relative="1" as="geometry">
            <mxPoint x="85" y="1120" as="sourcePoint"/>
            <mxPoint x="120" y="130" as="targetPoint"/>
          </mxGeometry>
        </mxCell>
        <mxCell id="GIU8r86tIvMhfs9YMdke-12" value="" style="html=1;points=[];perimeter=orthogonalPerimeter;rounded=0;shadow=0;comic=0;labelBackgroundColor=none;strokeWidth=1;fontFamily=Verdana;fontSize=12;align=center;" parent="POtOXzE_D4GUK6vgggto-1" vertex="1">
          <mxGeometry x="80" y="140" width="10" height="940" as="geometry"/>
        </mxCell>
        <mxCell id="GIU8r86tIvMhfs9YMdke-13" value="" style="html=1;verticalAlign=bottom;endArrow=block;labelBackgroundColor=none;fontFamily=Verdana;fontSize=12;elbow=vertical;" parent="POtOXzE_D4GUK6vgggto-1" edge="1">
          <mxGeometry relative="1" as="geometry">
            <mxPoint x="285" y="240" as="sourcePoint"/>
            <mxPoint x="495" y="240" as="targetPoint"/>
          </mxGeometry>
        </mxCell>
        <mxCell id="GIU8r86tIvMhfs9YMdke-14" value="请求生成支付订单" style="text;html=1;align=center;verticalAlign=middle;resizable=0;points=[];;labelBackgroundColor=#ffffff;" parent="GIU8r86tIvMhfs9YMdke-13" vertex="1" connectable="0">
          <mxGeometry y="-10" relative="1" as="geometry">
            <mxPoint x="-10" y="-10.5" as="offset"/>
          </mxGeometry>
        </mxCell>
        <mxCell id="IINKS8qUpg1Cit4TUINT-0" value="" style="html=1;verticalAlign=bottom;endArrow=block;labelBackgroundColor=none;fontFamily=Verdana;fontSize=12;elbow=vertical;" parent="POtOXzE_D4GUK6vgggto-1" edge="1">
          <mxGeometry relative="1" as="geometry">
            <mxPoint x="505" y="488" as="sourcePoint"/>
            <mxPoint x="705" y="488" as="targetPoint"/>
          </mxGeometry>
        </mxCell>
        <mxCell id="IINKS8qUpg1Cit4TUINT-1" value="支付置单" style="text;html=1;align=center;verticalAlign=middle;resizable=0;points=[];;labelBackgroundColor=#ffffff;" parent="IINKS8qUpg1Cit4TUINT-0" vertex="1" connectable="0">
          <mxGeometry y="-10" relative="1" as="geometry">
            <mxPoint x="4.5" y="-12" as="offset"/>
          </mxGeometry>
        </mxCell>
        <mxCell id="IINKS8qUpg1Cit4TUINT-2" value="" style="html=1;verticalAlign=bottom;endArrow=block;labelBackgroundColor=none;fontFamily=Verdana;fontSize=12;elbow=vertical;" parent="POtOXzE_D4GUK6vgggto-1" edge="1">
          <mxGeometry relative="1" as="geometry">
            <mxPoint x="705" y="517.9999999999999" as="sourcePoint"/>
            <mxPoint x="505" y="517.9999999999999" as="targetPoint"/>
          </mxGeometry>
        </mxCell>
        <mxCell id="IINKS8qUpg1Cit4TUINT-3" value="返回预付单信息" style="text;html=1;align=center;verticalAlign=middle;resizable=0;points=[];;labelBackgroundColor=#ffffff;" parent="IINKS8qUpg1Cit4TUINT-2" vertex="1" connectable="0">
          <mxGeometry y="-10" relative="1" as="geometry">
            <mxPoint x="-10" y="9" as="offset"/>
          </mxGeometry>
        </mxCell>
        <mxCell id="IINKS8qUpg1Cit4TUINT-4" value="" style="html=1;verticalAlign=bottom;endArrow=block;labelBackgroundColor=none;fontFamily=Verdana;fontSize=12;elbow=vertical;" parent="POtOXzE_D4GUK6vgggto-1" source="W_6jnHVBBPaOy01iMl-A-58" target="W_6jnHVBBPaOy01iMl-A-25" edge="1">
          <mxGeometry relative="1" as="geometry">
            <mxPoint x="490" y="530" as="sourcePoint"/>
            <mxPoint x="300" y="530" as="targetPoint"/>
            <Array as="points">
              <mxPoint x="450" y="530"/>
            </Array>
          </mxGeometry>
        </mxCell>
        <mxCell id="IINKS8qUpg1Cit4TUINT-5" value="返回支付参数" style="text;html=1;align=center;verticalAlign=middle;resizable=0;points=[];;labelBackgroundColor=#ffffff;" parent="IINKS8qUpg1Cit4TUINT-4" vertex="1" connectable="0">
          <mxGeometry y="-10" relative="1" as="geometry">
            <mxPoint x="-10" y="9" as="offset"/>
          </mxGeometry>
        </mxCell>
        <mxCell id="IINKS8qUpg1Cit4TUINT-6" value="" style="html=1;verticalAlign=bottom;endArrow=block;labelBackgroundColor=none;fontFamily=Verdana;fontSize=12;elbow=vertical;" parent="POtOXzE_D4GUK6vgggto-1" edge="1">
          <mxGeometry relative="1" as="geometry">
            <mxPoint x="90" y="558.9999999999999" as="sourcePoint"/>
            <mxPoint x="275" y="558.9999999999999" as="targetPoint"/>
          </mxGeometry>
        </mxCell>
        <mxCell id="IINKS8qUpg1Cit4TUINT-7" value="用户点击发起支付" style="text;html=1;align=center;verticalAlign=middle;resizable=0;points=[];;labelBackgroundColor=#ffffff;" parent="IINKS8qUpg1Cit4TUINT-6" vertex="1" connectable="0">
          <mxGeometry y="-10" relative="1" as="geometry">
            <mxPoint x="4.5" y="-12" as="offset"/>
          </mxGeometry>
        </mxCell>
        <mxCell id="IINKS8qUpg1Cit4TUINT-9" value="" style="html=1;verticalAlign=bottom;endArrow=block;labelBackgroundColor=none;fontFamily=Verdana;fontSize=12;elbow=vertical;" parent="POtOXzE_D4GUK6vgggto-1" edge="1">
          <mxGeometry relative="1" as="geometry">
            <mxPoint x="285" y="579.0000000000001" as="sourcePoint"/>
            <mxPoint x="705" y="579.0000000000001" as="targetPoint"/>
          </mxGeometry>
        </mxCell>
        <mxCell id="IINKS8qUpg1Cit4TUINT-10" value="请求支付" style="text;html=1;align=center;verticalAlign=middle;resizable=0;points=[];;labelBackgroundColor=#ffffff;" parent="IINKS8qUpg1Cit4TUINT-9" vertex="1" connectable="0">
          <mxGeometry y="-10" relative="1" as="geometry">
            <mxPoint x="4.5" y="-12" as="offset"/>
          </mxGeometry>
        </mxCell>
        <mxCell id="IINKS8qUpg1Cit4TUINT-11" value="" style="html=1;verticalAlign=bottom;endArrow=block;labelBackgroundColor=none;fontFamily=Verdana;fontSize=12;elbow=vertical;" parent="POtOXzE_D4GUK6vgggto-1" target="W_6jnHVBBPaOy01iMl-A-63" edge="1">
          <mxGeometry relative="1" as="geometry">
            <mxPoint x="705" y="612.9999999999999" as="sourcePoint"/>
            <mxPoint x="505" y="612.9999999999999" as="targetPoint"/>
          </mxGeometry>
        </mxCell>
        <mxCell id="IINKS8qUpg1Cit4TUINT-12" value="要求支付授权" style="text;html=1;align=center;verticalAlign=middle;resizable=0;points=[];;labelBackgroundColor=#ffffff;" parent="IINKS8qUpg1Cit4TUINT-11" vertex="1" connectable="0">
          <mxGeometry y="-10" relative="1" as="geometry">
            <mxPoint x="-10" y="9" as="offset"/>
          </mxGeometry>
        </mxCell>
        <mxCell id="IINKS8qUpg1Cit4TUINT-13" value="" style="html=1;verticalAlign=bottom;endArrow=block;labelBackgroundColor=none;fontFamily=Verdana;fontSize=12;elbow=vertical;" parent="POtOXzE_D4GUK6vgggto-1" target="W_6jnHVBBPaOy01iMl-A-63" edge="1">
          <mxGeometry relative="1" as="geometry">
            <mxPoint x="90" y="649" as="sourcePoint"/>
            <mxPoint x="275" y="648.9999999999999" as="targetPoint"/>
            <Array as="points">
              <mxPoint x="250" y="649"/>
            </Array>
          </mxGeometry>
        </mxCell>
        <mxCell id="IINKS8qUpg1Cit4TUINT-14" value="确认支付，输入密码" style="text;html=1;align=center;verticalAlign=middle;resizable=0;points=[];;labelBackgroundColor=#ffffff;" parent="IINKS8qUpg1Cit4TUINT-13" vertex="1" connectable="0">
          <mxGeometry y="-10" relative="1" as="geometry">
            <mxPoint x="4.5" y="-12" as="offset"/>
          </mxGeometry>
        </mxCell>
        <mxCell id="IINKS8qUpg1Cit4TUINT-15" value="" style="html=1;verticalAlign=bottom;endArrow=block;labelBackgroundColor=none;fontFamily=Verdana;fontSize=12;elbow=vertical;" parent="POtOXzE_D4GUK6vgggto-1" edge="1">
          <mxGeometry relative="1" as="geometry">
            <mxPoint x="705" y="678.9999999999999" as="sourcePoint"/>
            <mxPoint x="285" y="678.9999999999999" as="targetPoint"/>
          </mxGeometry>
        </mxCell>
        <mxCell id="IINKS8qUpg1Cit4TUINT-16" value="返回支付结果" style="text;html=1;align=center;verticalAlign=middle;resizable=0;points=[];;labelBackgroundColor=#ffffff;" parent="IINKS8qUpg1Cit4TUINT-15" vertex="1" connectable="0">
          <mxGeometry y="-10" relative="1" as="geometry">
            <mxPoint x="-10" y="9" as="offset"/>
          </mxGeometry>
        </mxCell>
        <mxCell id="IINKS8qUpg1Cit4TUINT-17" value="" style="html=1;verticalAlign=bottom;endArrow=block;labelBackgroundColor=none;fontFamily=Verdana;fontSize=12;elbow=vertical;" parent="POtOXzE_D4GUK6vgggto-1" edge="1">
          <mxGeometry relative="1" as="geometry">
            <mxPoint x="705" y="728.9999999999999" as="sourcePoint"/>
            <mxPoint x="505" y="728.9999999999999" as="targetPoint"/>
          </mxGeometry>
        </mxCell>
        <mxCell id="IINKS8qUpg1Cit4TUINT-18" value="返回支付结果" style="text;html=1;align=center;verticalAlign=middle;resizable=0;points=[];;labelBackgroundColor=#ffffff;" parent="IINKS8qUpg1Cit4TUINT-17" vertex="1" connectable="0">
          <mxGeometry y="-10" relative="1" as="geometry">
            <mxPoint x="5" y="11" as="offset"/>
          </mxGeometry>
        </mxCell>
        <mxCell id="IINKS8qUpg1Cit4TUINT-19" value="" style="html=1;verticalAlign=bottom;endArrow=block;labelBackgroundColor=none;fontFamily=Verdana;fontSize=12;elbow=vertical;" parent="POtOXzE_D4GUK6vgggto-1" edge="1">
          <mxGeometry relative="1" as="geometry">
            <mxPoint x="505" y="769" as="sourcePoint"/>
            <mxPoint x="705" y="769" as="targetPoint"/>
          </mxGeometry>
        </mxCell>
        <mxCell id="IINKS8qUpg1Cit4TUINT-20" value="告知微信通知处理结果" style="text;html=1;align=center;verticalAlign=middle;resizable=0;points=[];;labelBackgroundColor=#ffffff;" parent="IINKS8qUpg1Cit4TUINT-19" vertex="1" connectable="0">
          <mxGeometry y="-10" relative="1" as="geometry">
            <mxPoint x="4.5" y="-12" as="offset"/>
          </mxGeometry>
        </mxCell>
        <mxCell id="IINKS8qUpg1Cit4TUINT-23" value="" style="html=1;verticalAlign=bottom;endArrow=block;labelBackgroundColor=none;fontFamily=Verdana;fontSize=12;elbow=vertical;" parent="POtOXzE_D4GUK6vgggto-1" edge="1">
          <mxGeometry relative="1" as="geometry">
            <mxPoint x="90" y="708.9999999999999" as="sourcePoint"/>
            <mxPoint x="275" y="708.9999999999999" as="targetPoint"/>
          </mxGeometry>
        </mxCell>
        <mxCell id="IINKS8qUpg1Cit4TUINT-24" value="点击完成&lt;br&gt;关闭微信支付结果页" style="text;html=1;align=center;verticalAlign=middle;resizable=0;points=[];;labelBackgroundColor=#ffffff;" parent="IINKS8qUpg1Cit4TUINT-23" vertex="1" connectable="0">
          <mxGeometry y="-10" relative="1" as="geometry">
            <mxPoint x="4.5" y="-12" as="offset"/>
          </mxGeometry>
        </mxCell>
        <mxCell id="IINKS8qUpg1Cit4TUINT-25" value="" style="html=1;verticalAlign=bottom;endArrow=block;labelBackgroundColor=none;fontFamily=Verdana;fontSize=12;elbow=vertical;" parent="POtOXzE_D4GUK6vgggto-1" edge="1">
          <mxGeometry relative="1" as="geometry">
            <mxPoint x="285" y="789" as="sourcePoint"/>
            <mxPoint x="495" y="789" as="targetPoint"/>
          </mxGeometry>
        </mxCell>
        <mxCell id="IINKS8qUpg1Cit4TUINT-26" value="请求平台支付结果页" style="text;html=1;align=center;verticalAlign=middle;resizable=0;points=[];;labelBackgroundColor=#ffffff;" parent="IINKS8qUpg1Cit4TUINT-25" vertex="1" connectable="0">
          <mxGeometry y="-10" relative="1" as="geometry">
            <mxPoint x="4.5" y="-12" as="offset"/>
          </mxGeometry>
        </mxCell>
        <mxCell id="IINKS8qUpg1Cit4TUINT-27" value="" style="html=1;verticalAlign=bottom;endArrow=block;labelBackgroundColor=none;fontFamily=Verdana;fontSize=12;elbow=vertical;" parent="POtOXzE_D4GUK6vgggto-1" edge="1">
          <mxGeometry relative="1" as="geometry">
            <mxPoint x="495" y="930" as="sourcePoint"/>
            <mxPoint x="285" y="930" as="targetPoint"/>
          </mxGeometry>
        </mxCell>
        <mxCell id="IINKS8qUpg1Cit4TUINT-28" value="一键注册入口" style="text;html=1;align=center;verticalAlign=middle;resizable=0;points=[];;labelBackgroundColor=#ffffff;" parent="IINKS8qUpg1Cit4TUINT-27" vertex="1" connectable="0">
          <mxGeometry y="-10" relative="1" as="geometry">
            <mxPoint y="10" as="offset"/>
          </mxGeometry>
        </mxCell>
        <mxCell id="IINKS8qUpg1Cit4TUINT-31" value="" style="html=1;verticalAlign=bottom;endArrow=block;labelBackgroundColor=none;fontFamily=Verdana;fontSize=12;elbow=vertical;" parent="POtOXzE_D4GUK6vgggto-1" edge="1">
          <mxGeometry relative="1" as="geometry">
            <mxPoint x="90" y="950" as="sourcePoint"/>
            <mxPoint x="275" y="950" as="targetPoint"/>
          </mxGeometry>
        </mxCell>
        <mxCell id="IINKS8qUpg1Cit4TUINT-32" value="点击一键注册" style="text;html=1;align=center;verticalAlign=middle;resizable=0;points=[];;labelBackgroundColor=#ffffff;" parent="IINKS8qUpg1Cit4TUINT-31" vertex="1" connectable="0">
          <mxGeometry y="-10" relative="1" as="geometry">
            <mxPoint x="4.5" y="-12" as="offset"/>
          </mxGeometry>
        </mxCell>
        <mxCell id="IINKS8qUpg1Cit4TUINT-33" value="" style="html=1;verticalAlign=bottom;endArrow=block;labelBackgroundColor=none;fontFamily=Verdana;fontSize=12;elbow=vertical;" parent="POtOXzE_D4GUK6vgggto-1" edge="1">
          <mxGeometry relative="1" as="geometry">
            <mxPoint x="285" y="980" as="sourcePoint"/>
            <mxPoint x="495" y="980" as="targetPoint"/>
          </mxGeometry>
        </mxCell>
        <mxCell id="IINKS8qUpg1Cit4TUINT-34" value="传OpenId，请求注册结果页" style="text;html=1;align=center;verticalAlign=middle;resizable=0;points=[];;labelBackgroundColor=#ffffff;" parent="IINKS8qUpg1Cit4TUINT-33" vertex="1" connectable="0">
          <mxGeometry y="-10" relative="1" as="geometry">
            <mxPoint x="4.5" y="-12" as="offset"/>
          </mxGeometry>
        </mxCell>
        <mxCell id="IINKS8qUpg1Cit4TUINT-35" value="" style="html=1;verticalAlign=bottom;endArrow=block;labelBackgroundColor=none;fontFamily=Verdana;fontSize=12;elbow=vertical;" parent="POtOXzE_D4GUK6vgggto-1" edge="1">
          <mxGeometry relative="1" as="geometry">
            <mxPoint x="495" y="1010" as="sourcePoint"/>
            <mxPoint x="285" y="1010" as="targetPoint"/>
          </mxGeometry>
        </mxCell>
        <mxCell id="IINKS8qUpg1Cit4TUINT-36" value="返回注册结果 /&amp;nbsp;注册奖励" style="text;html=1;align=center;verticalAlign=middle;resizable=0;points=[];;labelBackgroundColor=#ffffff;" parent="IINKS8qUpg1Cit4TUINT-35" vertex="1" connectable="0">
          <mxGeometry y="-10" relative="1" as="geometry">
            <mxPoint y="10" as="offset"/>
          </mxGeometry>
        </mxCell>
        <mxCell id="IINKS8qUpg1Cit4TUINT-37" value="" style="html=1;verticalAlign=bottom;endArrow=block;labelBackgroundColor=none;fontFamily=Verdana;fontSize=12;elbow=vertical;" parent="POtOXzE_D4GUK6vgggto-1" edge="1">
          <mxGeometry relative="1" as="geometry">
            <mxPoint x="90" y="1030" as="sourcePoint"/>
            <mxPoint x="275" y="1030" as="targetPoint"/>
          </mxGeometry>
        </mxCell>
        <mxCell id="IINKS8qUpg1Cit4TUINT-38" value="点击完成" style="text;html=1;align=center;verticalAlign=middle;resizable=0;points=[];;labelBackgroundColor=#ffffff;" parent="IINKS8qUpg1Cit4TUINT-37" vertex="1" connectable="0">
          <mxGeometry y="-10" relative="1" as="geometry">
            <mxPoint x="4.5" y="-12" as="offset"/>
          </mxGeometry>
        </mxCell>
        <mxCell id="yTwROIXOGGT7VwJEHYeT-0" value="Alter：会员混合支付（万金友会员显示）" style="swimlane;" parent="POtOXzE_D4GUK6vgggto-1" vertex="1">
          <mxGeometry x="30" y="260" width="510" height="140" as="geometry">
            <mxRectangle x="30" y="260" width="90" height="23" as="alternateBounds"/>
          </mxGeometry>
        </mxCell>
        <mxCell id="yTwROIXOGGT7VwJEHYeT-1" value="" style="html=1;verticalAlign=bottom;endArrow=block;labelBackgroundColor=none;fontFamily=Verdana;fontSize=12;elbow=vertical;" parent="yTwROIXOGGT7VwJEHYeT-0" edge="1">
          <mxGeometry relative="1" as="geometry">
            <mxPoint x="465" y="40" as="sourcePoint"/>
            <mxPoint x="255" y="40" as="targetPoint"/>
          </mxGeometry>
        </mxCell>
        <mxCell id="yTwROIXOGGT7VwJEHYeT-2" value="返回会员卡券信息" style="text;html=1;align=center;verticalAlign=middle;resizable=0;points=[];;labelBackgroundColor=#ffffff;" parent="yTwROIXOGGT7VwJEHYeT-1" vertex="1" connectable="0">
          <mxGeometry y="-10" relative="1" as="geometry">
            <mxPoint x="-10" y="9" as="offset"/>
          </mxGeometry>
        </mxCell>
        <mxCell id="yTwROIXOGGT7VwJEHYeT-3" value="" style="html=1;verticalAlign=bottom;endArrow=block;labelBackgroundColor=none;fontFamily=Verdana;fontSize=12;elbow=vertical;exitX=1.059;exitY=0.094;exitDx=0;exitDy=0;exitPerimeter=0;" parent="yTwROIXOGGT7VwJEHYeT-0" edge="1">
          <mxGeometry relative="1" as="geometry">
            <mxPoint x="60.58999999999992" y="65.77999999999997" as="sourcePoint"/>
            <mxPoint x="245" y="65.77999999999997" as="targetPoint"/>
          </mxGeometry>
        </mxCell>
        <mxCell id="yTwROIXOGGT7VwJEHYeT-4" value="选择使用卡券" style="text;html=1;align=center;verticalAlign=middle;resizable=0;points=[];;labelBackgroundColor=#ffffff;" parent="yTwROIXOGGT7VwJEHYeT-3" vertex="1" connectable="0">
          <mxGeometry y="-10" relative="1" as="geometry">
            <mxPoint x="4.5" y="-12" as="offset"/>
          </mxGeometry>
        </mxCell>
        <mxCell id="yTwROIXOGGT7VwJEHYeT-7" value="" style="html=1;verticalAlign=bottom;endArrow=block;labelBackgroundColor=none;fontFamily=Verdana;fontSize=12;elbow=vertical;" parent="yTwROIXOGGT7VwJEHYeT-0" edge="1">
          <mxGeometry relative="1" as="geometry">
            <mxPoint x="465" y="127" as="sourcePoint"/>
            <mxPoint x="255" y="127" as="targetPoint"/>
          </mxGeometry>
        </mxCell>
        <mxCell id="yTwROIXOGGT7VwJEHYeT-8" value="冻结卡券成功 /&amp;nbsp;实付金额" style="text;html=1;align=center;verticalAlign=middle;resizable=0;points=[];;labelBackgroundColor=#ffffff;" parent="yTwROIXOGGT7VwJEHYeT-7" vertex="1" connectable="0">
          <mxGeometry y="-10" relative="1" as="geometry">
            <mxPoint x="1" y="8" as="offset"/>
          </mxGeometry>
        </mxCell>
        <mxCell id="yTwROIXOGGT7VwJEHYeT-9" value="" style="html=1;verticalAlign=bottom;endArrow=block;labelBackgroundColor=none;fontFamily=Verdana;fontSize=12;elbow=vertical;exitX=1.059;exitY=0.094;exitDx=0;exitDy=0;exitPerimeter=0;" parent="yTwROIXOGGT7VwJEHYeT-0" edge="1">
          <mxGeometry relative="1" as="geometry">
            <mxPoint x="60.58999999999992" y="156.77999999999997" as="sourcePoint"/>
            <mxPoint x="245" y="156.77999999999997" as="targetPoint"/>
          </mxGeometry>
        </mxCell>
        <mxCell id="yTwROIXOGGT7VwJEHYeT-10" value="确认支付" style="text;html=1;align=center;verticalAlign=middle;resizable=0;points=[];;labelBackgroundColor=#ffffff;" parent="yTwROIXOGGT7VwJEHYeT-9" vertex="1" connectable="0">
          <mxGeometry y="-10" relative="1" as="geometry">
            <mxPoint x="4.5" y="-12" as="offset"/>
          </mxGeometry>
        </mxCell>
        <mxCell id="yTwROIXOGGT7VwJEHYeT-5" value="" style="html=1;verticalAlign=bottom;endArrow=block;labelBackgroundColor=none;fontFamily=Verdana;fontSize=12;elbow=vertical;" parent="POtOXzE_D4GUK6vgggto-1" source="W_6jnHVBBPaOy01iMl-A-25" target="W_6jnHVBBPaOy01iMl-A-58" edge="1">
          <mxGeometry relative="1" as="geometry">
            <mxPoint x="290" y="350" as="sourcePoint"/>
            <mxPoint x="480" y="350" as="targetPoint"/>
            <Array as="points">
              <mxPoint x="440" y="350"/>
            </Array>
          </mxGeometry>
        </mxCell>
        <mxCell id="yTwROIXOGGT7VwJEHYeT-6" value="冻结所使用卡券" style="text;html=1;align=center;verticalAlign=middle;resizable=0;points=[];;labelBackgroundColor=#ffffff;" parent="yTwROIXOGGT7VwJEHYeT-5" vertex="1" connectable="0">
          <mxGeometry y="-10" relative="1" as="geometry">
            <mxPoint x="-10" y="-10" as="offset"/>
          </mxGeometry>
        </mxCell>
        <mxCell id="yTwROIXOGGT7VwJEHYeT-11" value="" style="html=1;verticalAlign=bottom;endArrow=block;labelBackgroundColor=none;fontFamily=Verdana;fontSize=12;elbow=vertical;" parent="POtOXzE_D4GUK6vgggto-1" source="W_6jnHVBBPaOy01iMl-A-25" target="W_6jnHVBBPaOy01iMl-A-58" edge="1">
          <mxGeometry relative="1" as="geometry">
            <mxPoint x="300" y="440" as="sourcePoint"/>
            <mxPoint x="490" y="440" as="targetPoint"/>
            <Array as="points">
              <mxPoint x="460" y="440"/>
            </Array>
          </mxGeometry>
        </mxCell>
        <mxCell id="yTwROIXOGGT7VwJEHYeT-12" value="请求生成支付订单" style="text;html=1;align=center;verticalAlign=middle;resizable=0;points=[];;labelBackgroundColor=#ffffff;" parent="yTwROIXOGGT7VwJEHYeT-11" vertex="1" connectable="0">
          <mxGeometry y="-10" relative="1" as="geometry">
            <mxPoint x="-10" y="-10" as="offset"/>
          </mxGeometry>
        </mxCell>
        <mxCell id="yTwROIXOGGT7VwJEHYeT-13" value="Alter : 会员注册（非万金友会员显示）" style="swimlane;" parent="POtOXzE_D4GUK6vgggto-1" vertex="1">
          <mxGeometry x="60" y="880" width="470" height="180" as="geometry">
            <mxRectangle x="30" y="260" width="90" height="23" as="alternateBounds"/>
          </mxGeometry>
        </mxCell>
        <mxCell id="yTwROIXOGGT7VwJEHYeT-22" value="" style="html=1;verticalAlign=bottom;endArrow=block;labelBackgroundColor=none;fontFamily=Verdana;fontSize=12;elbow=vertical;" parent="POtOXzE_D4GUK6vgggto-1" source="W_6jnHVBBPaOy01iMl-A-73" target="W_6jnHVBBPaOy01iMl-A-63" edge="1">
          <mxGeometry relative="1" as="geometry">
            <mxPoint x="470" y="850" as="sourcePoint"/>
            <mxPoint x="300" y="850" as="targetPoint"/>
            <Array as="points">
              <mxPoint x="470" y="830"/>
            </Array>
          </mxGeometry>
        </mxCell>
        <mxCell id="yTwROIXOGGT7VwJEHYeT-23" value="平台支付结果 /&amp;nbsp;卡券核销结果&lt;br&gt;消费奖励（积分/卡券）" style="text;html=1;align=center;verticalAlign=middle;resizable=0;points=[];;labelBackgroundColor=#ffffff;" parent="yTwROIXOGGT7VwJEHYeT-22" vertex="1" connectable="0">
          <mxGeometry y="-10" relative="1" as="geometry">
            <mxPoint y="10" as="offset"/>
          </mxGeometry>
        </mxCell>
      </root>
    </mxGraphModel>
  </diagram>
  <diagram id="i4a-J_ylOV4uWHRGFcHT" name="场景4-客户扫物业收款码支付">
    <mxGraphModel dx="981" dy="551" grid="1" gridSize="10" guides="1" tooltips="1" connect="1" arrows="1" fold="1" page="1" pageScale="1" pageWidth="827" pageHeight="1169" math="0" shadow="0">
      <root>
        <mxCell id="qyCIQJJ-4fnG6ax5W55k-0"/>
        <mxCell id="qyCIQJJ-4fnG6ax5W55k-1" parent="qyCIQJJ-4fnG6ax5W55k-0"/>
        <mxCell id="_9r3t8t2S2ggoT1YVUvL-0" value="万金友付服务端" style="shape=umlLifeline;perimeter=lifelinePerimeter;whiteSpace=wrap;html=1;container=1;collapsible=0;recursiveResize=0;outlineConnect=0;rounded=1;shadow=0;comic=0;labelBackgroundColor=none;strokeWidth=1;fontFamily=Verdana;fontSize=12;align=center;" parent="qyCIQJJ-4fnG6ax5W55k-1" vertex="1">
          <mxGeometry x="443" y="50" width="100" height="1070" as="geometry"/>
        </mxCell>
        <mxCell id="_9r3t8t2S2ggoT1YVUvL-1" value="" style="html=1;points=[];perimeter=orthogonalPerimeter;rounded=0;shadow=0;comic=0;labelBackgroundColor=none;strokeWidth=1;fontFamily=Verdana;fontSize=12;align=center;" parent="_9r3t8t2S2ggoT1YVUvL-0" vertex="1">
          <mxGeometry x="45" y="90" width="10" height="50" as="geometry"/>
        </mxCell>
        <mxCell id="_9r3t8t2S2ggoT1YVUvL-2" value="" style="html=1;points=[];perimeter=orthogonalPerimeter;rounded=0;shadow=0;comic=0;labelBackgroundColor=none;strokeWidth=1;fontFamily=Verdana;fontSize=12;align=center;" parent="_9r3t8t2S2ggoT1YVUvL-0" vertex="1">
          <mxGeometry x="45" y="160" width="10" height="430" as="geometry"/>
        </mxCell>
        <mxCell id="_9r3t8t2S2ggoT1YVUvL-3" value="" style="html=1;points=[];perimeter=orthogonalPerimeter;rounded=0;shadow=0;comic=0;labelBackgroundColor=none;strokeWidth=1;fontFamily=Verdana;fontSize=12;align=center;" parent="_9r3t8t2S2ggoT1YVUvL-0" vertex="1">
          <mxGeometry x="45" y="780" width="10" height="270" as="geometry"/>
        </mxCell>
        <mxCell id="_9r3t8t2S2ggoT1YVUvL-4" value="微信服务端" style="shape=umlLifeline;perimeter=lifelinePerimeter;whiteSpace=wrap;html=1;container=1;collapsible=0;recursiveResize=0;outlineConnect=0;rounded=1;shadow=0;comic=0;labelBackgroundColor=none;strokeWidth=1;fontFamily=Verdana;fontSize=12;align=center;" parent="qyCIQJJ-4fnG6ax5W55k-1" vertex="1">
          <mxGeometry x="691" y="50" width="100" height="1070" as="geometry"/>
        </mxCell>
        <mxCell id="_9r3t8t2S2ggoT1YVUvL-6" value="" style="html=1;points=[];perimeter=orthogonalPerimeter;rounded=0;shadow=0;comic=0;labelBackgroundColor=none;strokeWidth=1;fontFamily=Verdana;fontSize=12;align=center;" parent="_9r3t8t2S2ggoT1YVUvL-4" vertex="1">
          <mxGeometry x="45" y="610" width="10" height="70" as="geometry"/>
        </mxCell>
        <mxCell id="_9r3t8t2S2ggoT1YVUvL-7" value="" style="html=1;points=[];perimeter=orthogonalPerimeter;rounded=0;shadow=0;comic=0;labelBackgroundColor=none;strokeWidth=1;fontFamily=Verdana;fontSize=12;align=center;" parent="_9r3t8t2S2ggoT1YVUvL-4" vertex="1">
          <mxGeometry x="45" y="694" width="10" height="70" as="geometry"/>
        </mxCell>
        <mxCell id="_9r3t8t2S2ggoT1YVUvL-8" value="" style="html=1;points=[];perimeter=orthogonalPerimeter;rounded=0;shadow=0;comic=0;labelBackgroundColor=none;strokeWidth=1;fontFamily=Verdana;fontSize=12;align=center;" parent="_9r3t8t2S2ggoT1YVUvL-4" vertex="1">
          <mxGeometry x="47" y="780" width="10" height="79" as="geometry"/>
        </mxCell>
        <mxCell id="_9r3t8t2S2ggoT1YVUvL-27" value="" style="html=1;points=[];perimeter=orthogonalPerimeter;rounded=0;shadow=0;comic=0;labelBackgroundColor=none;strokeWidth=1;fontFamily=Verdana;fontSize=12;align=center;" parent="_9r3t8t2S2ggoT1YVUvL-4" vertex="1">
          <mxGeometry x="45" y="510" width="10" height="80" as="geometry"/>
        </mxCell>
        <mxCell id="_9r3t8t2S2ggoT1YVUvL-9" value="微信客户端" style="shape=umlLifeline;perimeter=lifelinePerimeter;whiteSpace=wrap;html=1;container=1;collapsible=0;recursiveResize=0;outlineConnect=0;rounded=1;shadow=0;comic=0;labelBackgroundColor=none;strokeWidth=1;fontFamily=Verdana;fontSize=12;align=center;" parent="qyCIQJJ-4fnG6ax5W55k-1" vertex="1">
          <mxGeometry x="213" y="50" width="100" height="1070" as="geometry"/>
        </mxCell>
        <mxCell id="_9r3t8t2S2ggoT1YVUvL-11" value="" style="html=1;points=[];perimeter=orthogonalPerimeter;rounded=0;shadow=0;comic=0;labelBackgroundColor=none;strokeWidth=1;fontFamily=Verdana;fontSize=12;align=center;" parent="_9r3t8t2S2ggoT1YVUvL-9" vertex="1">
          <mxGeometry x="45" y="160" width="10" height="430" as="geometry"/>
        </mxCell>
        <mxCell id="_9r3t8t2S2ggoT1YVUvL-10" value="" style="html=1;points=[];perimeter=orthogonalPerimeter;rounded=0;shadow=0;comic=0;labelBackgroundColor=none;strokeWidth=1;fontFamily=Verdana;fontSize=12;align=center;" parent="_9r3t8t2S2ggoT1YVUvL-9" vertex="1">
          <mxGeometry x="45" y="600" width="10" height="450" as="geometry"/>
        </mxCell>
        <mxCell id="_9r3t8t2S2ggoT1YVUvL-12" value="" style="html=1;verticalAlign=bottom;endArrow=block;labelBackgroundColor=none;fontFamily=Verdana;fontSize=12;elbow=vertical;" parent="qyCIQJJ-4fnG6ax5W55k-1" target="_9r3t8t2S2ggoT1YVUvL-11" edge="1">
          <mxGeometry relative="1" as="geometry">
            <mxPoint x="48" y="230" as="sourcePoint"/>
            <mxPoint x="228" y="230" as="targetPoint"/>
          </mxGeometry>
        </mxCell>
        <mxCell id="_9r3t8t2S2ggoT1YVUvL-13" value="微信扫一扫订单码" style="text;html=1;align=center;verticalAlign=middle;resizable=0;points=[];;labelBackgroundColor=#ffffff;" parent="_9r3t8t2S2ggoT1YVUvL-12" vertex="1" connectable="0">
          <mxGeometry y="-10" relative="1" as="geometry">
            <mxPoint x="4.5" y="-12" as="offset"/>
          </mxGeometry>
        </mxCell>
        <mxCell id="_9r3t8t2S2ggoT1YVUvL-14" value="" style="html=1;verticalAlign=bottom;endArrow=block;labelBackgroundColor=none;fontFamily=Verdana;fontSize=12;elbow=vertical;entryX=1.1;entryY=0.023;entryDx=0;entryDy=0;entryPerimeter=0;" parent="qyCIQJJ-4fnG6ax5W55k-1" edge="1">
          <mxGeometry relative="1" as="geometry">
            <mxPoint x="488" y="169.76" as="sourcePoint"/>
            <mxPoint x="53" y="169.76" as="targetPoint"/>
          </mxGeometry>
        </mxCell>
        <mxCell id="_9r3t8t2S2ggoT1YVUvL-15" value="管家生成订单收款码，展示给用户看" style="text;html=1;align=center;verticalAlign=middle;resizable=0;points=[];;labelBackgroundColor=#ffffff;" parent="_9r3t8t2S2ggoT1YVUvL-14" vertex="1" connectable="0">
          <mxGeometry y="-10" relative="1" as="geometry">
            <mxPoint x="-7" y="5" as="offset"/>
          </mxGeometry>
        </mxCell>
        <mxCell id="_9r3t8t2S2ggoT1YVUvL-16" value="万科物业业主&lt;br&gt;微信支付用户" style="shape=umlActor;verticalLabelPosition=bottom;labelBackgroundColor=#ffffff;verticalAlign=top;html=1;outlineConnect=0;" parent="qyCIQJJ-4fnG6ax5W55k-1" vertex="1">
          <mxGeometry x="33" y="30" width="30" height="60" as="geometry"/>
        </mxCell>
        <mxCell id="_9r3t8t2S2ggoT1YVUvL-17" value="" style="endArrow=none;dashed=1;html=1;strokeColor=#000000;entryX=0.5;entryY=0.5;entryDx=0;entryDy=0;entryPerimeter=0;" parent="qyCIQJJ-4fnG6ax5W55k-1" target="_9r3t8t2S2ggoT1YVUvL-16" edge="1">
          <mxGeometry width="50" height="50" relative="1" as="geometry">
            <mxPoint x="48" y="1120" as="sourcePoint"/>
            <mxPoint x="83" y="130" as="targetPoint"/>
          </mxGeometry>
        </mxCell>
        <mxCell id="_9r3t8t2S2ggoT1YVUvL-18" value="" style="html=1;points=[];perimeter=orthogonalPerimeter;rounded=0;shadow=0;comic=0;labelBackgroundColor=none;strokeWidth=1;fontFamily=Verdana;fontSize=12;align=center;" parent="qyCIQJJ-4fnG6ax5W55k-1" vertex="1">
          <mxGeometry x="43" y="150" width="10" height="950" as="geometry"/>
        </mxCell>
        <mxCell id="_9r3t8t2S2ggoT1YVUvL-28" value="" style="html=1;verticalAlign=bottom;endArrow=block;labelBackgroundColor=none;fontFamily=Verdana;fontSize=12;elbow=vertical;" parent="qyCIQJJ-4fnG6ax5W55k-1" edge="1">
          <mxGeometry relative="1" as="geometry">
            <mxPoint x="498" y="590" as="sourcePoint"/>
            <mxPoint x="736" y="590" as="targetPoint"/>
            <Array as="points">
              <mxPoint x="670" y="590"/>
            </Array>
          </mxGeometry>
        </mxCell>
        <mxCell id="_9r3t8t2S2ggoT1YVUvL-29" value="预支付置单" style="text;html=1;align=center;verticalAlign=middle;resizable=0;points=[];;labelBackgroundColor=#ffffff;" parent="_9r3t8t2S2ggoT1YVUvL-28" vertex="1" connectable="0">
          <mxGeometry y="-10" relative="1" as="geometry">
            <mxPoint x="-10" y="-10" as="offset"/>
          </mxGeometry>
        </mxCell>
        <mxCell id="_9r3t8t2S2ggoT1YVUvL-30" value="" style="html=1;verticalAlign=bottom;endArrow=block;labelBackgroundColor=none;fontFamily=Verdana;fontSize=12;elbow=vertical;" parent="qyCIQJJ-4fnG6ax5W55k-1" source="_9r3t8t2S2ggoT1YVUvL-27" edge="1">
          <mxGeometry relative="1" as="geometry">
            <mxPoint x="720" y="620" as="sourcePoint"/>
            <mxPoint x="498" y="620" as="targetPoint"/>
          </mxGeometry>
        </mxCell>
        <mxCell id="_9r3t8t2S2ggoT1YVUvL-31" value="返回预支付交易链接(code_url)" style="text;html=1;align=center;verticalAlign=middle;resizable=0;points=[];;labelBackgroundColor=#ffffff;" parent="_9r3t8t2S2ggoT1YVUvL-30" vertex="1" connectable="0">
          <mxGeometry y="-10" relative="1" as="geometry">
            <mxPoint x="5" y="10" as="offset"/>
          </mxGeometry>
        </mxCell>
        <mxCell id="_9r3t8t2S2ggoT1YVUvL-32" value="" style="html=1;verticalAlign=bottom;endArrow=block;labelBackgroundColor=none;fontFamily=Verdana;fontSize=12;elbow=vertical;" parent="qyCIQJJ-4fnG6ax5W55k-1" source="_9r3t8t2S2ggoT1YVUvL-10" target="_9r3t8t2S2ggoT1YVUvL-6" edge="1">
          <mxGeometry relative="1" as="geometry">
            <mxPoint x="290" y="680" as="sourcePoint"/>
            <mxPoint x="710" y="680" as="targetPoint"/>
            <Array as="points">
              <mxPoint x="610" y="680"/>
            </Array>
          </mxGeometry>
        </mxCell>
        <mxCell id="_9r3t8t2S2ggoT1YVUvL-33" value="提交支付请求" style="text;html=1;align=center;verticalAlign=middle;resizable=0;points=[];;labelBackgroundColor=#ffffff;" parent="_9r3t8t2S2ggoT1YVUvL-32" vertex="1" connectable="0">
          <mxGeometry y="-10" relative="1" as="geometry">
            <mxPoint x="4.5" y="-12" as="offset"/>
          </mxGeometry>
        </mxCell>
        <mxCell id="_9r3t8t2S2ggoT1YVUvL-34" value="" style="html=1;verticalAlign=bottom;endArrow=block;labelBackgroundColor=none;fontFamily=Verdana;fontSize=12;elbow=vertical;" parent="qyCIQJJ-4fnG6ax5W55k-1" source="_9r3t8t2S2ggoT1YVUvL-6" target="_9r3t8t2S2ggoT1YVUvL-10" edge="1">
          <mxGeometry relative="1" as="geometry">
            <mxPoint x="720" y="710" as="sourcePoint"/>
            <mxPoint x="280" y="695" as="targetPoint"/>
            <Array as="points">
              <mxPoint x="590" y="710"/>
            </Array>
          </mxGeometry>
        </mxCell>
        <mxCell id="_9r3t8t2S2ggoT1YVUvL-35" value="支付授权请求" style="text;html=1;align=center;verticalAlign=middle;resizable=0;points=[];;labelBackgroundColor=#ffffff;" parent="_9r3t8t2S2ggoT1YVUvL-34" vertex="1" connectable="0">
          <mxGeometry y="-10" relative="1" as="geometry">
            <mxPoint x="-9" y="10" as="offset"/>
          </mxGeometry>
        </mxCell>
        <mxCell id="_9r3t8t2S2ggoT1YVUvL-36" value="" style="html=1;verticalAlign=bottom;endArrow=block;labelBackgroundColor=none;fontFamily=Verdana;fontSize=12;elbow=vertical;" parent="qyCIQJJ-4fnG6ax5W55k-1" edge="1">
          <mxGeometry relative="1" as="geometry">
            <mxPoint x="50" y="740" as="sourcePoint"/>
            <mxPoint x="258" y="740" as="targetPoint"/>
          </mxGeometry>
        </mxCell>
        <mxCell id="_9r3t8t2S2ggoT1YVUvL-37" value="用户确认支付，输入密码" style="text;html=1;align=center;verticalAlign=middle;resizable=0;points=[];;labelBackgroundColor=#ffffff;" parent="_9r3t8t2S2ggoT1YVUvL-36" vertex="1" connectable="0">
          <mxGeometry y="-10" relative="1" as="geometry">
            <mxPoint x="4.5" y="-12" as="offset"/>
          </mxGeometry>
        </mxCell>
        <mxCell id="_9r3t8t2S2ggoT1YVUvL-40" value="" style="html=1;verticalAlign=bottom;endArrow=block;labelBackgroundColor=none;fontFamily=Verdana;fontSize=12;elbow=vertical;" parent="qyCIQJJ-4fnG6ax5W55k-1" source="_9r3t8t2S2ggoT1YVUvL-10" target="_9r3t8t2S2ggoT1YVUvL-7" edge="1">
          <mxGeometry relative="1" as="geometry">
            <mxPoint x="290" y="760" as="sourcePoint"/>
            <mxPoint x="733" y="760.0000000000002" as="targetPoint"/>
            <Array as="points">
              <mxPoint x="690" y="760"/>
            </Array>
          </mxGeometry>
        </mxCell>
        <mxCell id="_9r3t8t2S2ggoT1YVUvL-41" value="提交支付授权" style="text;html=1;align=center;verticalAlign=middle;resizable=0;points=[];;labelBackgroundColor=#ffffff;" parent="_9r3t8t2S2ggoT1YVUvL-40" vertex="1" connectable="0">
          <mxGeometry y="-10" relative="1" as="geometry">
            <mxPoint x="4.5" y="-12" as="offset"/>
          </mxGeometry>
        </mxCell>
        <mxCell id="_9r3t8t2S2ggoT1YVUvL-42" value="" style="html=1;verticalAlign=bottom;endArrow=block;labelBackgroundColor=none;fontFamily=Verdana;fontSize=12;elbow=vertical;" parent="qyCIQJJ-4fnG6ax5W55k-1" target="_9r3t8t2S2ggoT1YVUvL-10" edge="1">
          <mxGeometry relative="1" as="geometry">
            <mxPoint x="733" y="790" as="sourcePoint"/>
            <mxPoint x="280" y="800" as="targetPoint"/>
          </mxGeometry>
        </mxCell>
        <mxCell id="_9r3t8t2S2ggoT1YVUvL-43" value="返回支付结果" style="text;html=1;align=center;verticalAlign=middle;resizable=0;points=[];;labelBackgroundColor=#ffffff;" parent="_9r3t8t2S2ggoT1YVUvL-42" vertex="1" connectable="0">
          <mxGeometry y="-10" relative="1" as="geometry">
            <mxPoint x="-9" y="10" as="offset"/>
          </mxGeometry>
        </mxCell>
        <mxCell id="_9r3t8t2S2ggoT1YVUvL-44" value="" style="html=1;verticalAlign=bottom;endArrow=block;labelBackgroundColor=none;fontFamily=Verdana;fontSize=12;elbow=vertical;" parent="qyCIQJJ-4fnG6ax5W55k-1" source="_9r3t8t2S2ggoT1YVUvL-3" target="_9r3t8t2S2ggoT1YVUvL-8" edge="1">
          <mxGeometry relative="1" as="geometry">
            <mxPoint x="510" y="890" as="sourcePoint"/>
            <mxPoint x="733" y="890" as="targetPoint"/>
            <Array as="points">
              <mxPoint x="670" y="890"/>
            </Array>
          </mxGeometry>
        </mxCell>
        <mxCell id="_9r3t8t2S2ggoT1YVUvL-45" value="告知支付通知接收情况" style="text;html=1;align=center;verticalAlign=middle;resizable=0;points=[];;labelBackgroundColor=#ffffff;" parent="_9r3t8t2S2ggoT1YVUvL-44" vertex="1" connectable="0">
          <mxGeometry x="0.4706" y="60" relative="1" as="geometry">
            <mxPoint x="-60" y="58" as="offset"/>
          </mxGeometry>
        </mxCell>
        <mxCell id="_9r3t8t2S2ggoT1YVUvL-46" value="" style="html=1;verticalAlign=bottom;endArrow=block;labelBackgroundColor=none;fontFamily=Verdana;fontSize=12;elbow=vertical;" parent="qyCIQJJ-4fnG6ax5W55k-1" source="_9r3t8t2S2ggoT1YVUvL-8" target="_9r3t8t2S2ggoT1YVUvL-3" edge="1">
          <mxGeometry relative="1" as="geometry">
            <mxPoint x="733" y="850" as="sourcePoint"/>
            <mxPoint x="520" y="850" as="targetPoint"/>
            <Array as="points">
              <mxPoint x="550" y="850"/>
            </Array>
          </mxGeometry>
        </mxCell>
        <mxCell id="_9r3t8t2S2ggoT1YVUvL-47" value="异步通知支付结果" style="text;html=1;align=center;verticalAlign=middle;resizable=0;points=[];;labelBackgroundColor=#ffffff;" parent="_9r3t8t2S2ggoT1YVUvL-46" vertex="1" connectable="0">
          <mxGeometry y="-10" relative="1" as="geometry">
            <mxPoint x="-9" y="10" as="offset"/>
          </mxGeometry>
        </mxCell>
        <mxCell id="_9r3t8t2S2ggoT1YVUvL-48" value="" style="html=1;verticalAlign=bottom;endArrow=block;labelBackgroundColor=none;fontFamily=Verdana;fontSize=12;elbow=vertical;" parent="qyCIQJJ-4fnG6ax5W55k-1" target="_9r3t8t2S2ggoT1YVUvL-10" edge="1">
          <mxGeometry relative="1" as="geometry">
            <mxPoint x="53" y="820" as="sourcePoint"/>
            <mxPoint x="255" y="820" as="targetPoint"/>
            <Array as="points">
              <mxPoint x="60" y="820"/>
            </Array>
          </mxGeometry>
        </mxCell>
        <mxCell id="_9r3t8t2S2ggoT1YVUvL-49" value="点击完成，关闭微信支付结果页" style="text;html=1;align=center;verticalAlign=middle;resizable=0;points=[];;labelBackgroundColor=#ffffff;" parent="_9r3t8t2S2ggoT1YVUvL-48" vertex="1" connectable="0">
          <mxGeometry y="-10" relative="1" as="geometry">
            <mxPoint x="4.5" y="-12" as="offset"/>
          </mxGeometry>
        </mxCell>
        <mxCell id="_9r3t8t2S2ggoT1YVUvL-50" value="" style="html=1;verticalAlign=bottom;endArrow=block;labelBackgroundColor=none;fontFamily=Verdana;fontSize=12;elbow=vertical;" parent="qyCIQJJ-4fnG6ax5W55k-1" source="_9r3t8t2S2ggoT1YVUvL-10" target="_9r3t8t2S2ggoT1YVUvL-3" edge="1">
          <mxGeometry relative="1" as="geometry">
            <mxPoint x="280" y="860" as="sourcePoint"/>
            <mxPoint x="460" y="861" as="targetPoint"/>
            <Array as="points">
              <mxPoint x="450" y="850"/>
            </Array>
          </mxGeometry>
        </mxCell>
        <mxCell id="_9r3t8t2S2ggoT1YVUvL-51" value="请求平台支付结果页" style="text;html=1;align=center;verticalAlign=middle;resizable=0;points=[];;labelBackgroundColor=#ffffff;" parent="_9r3t8t2S2ggoT1YVUvL-50" vertex="1" connectable="0">
          <mxGeometry y="-10" relative="1" as="geometry">
            <mxPoint x="4.5" y="-12" as="offset"/>
          </mxGeometry>
        </mxCell>
        <mxCell id="_9r3t8t2S2ggoT1YVUvL-52" value="" style="html=1;verticalAlign=bottom;endArrow=block;labelBackgroundColor=none;fontFamily=Verdana;fontSize=12;elbow=vertical;" parent="qyCIQJJ-4fnG6ax5W55k-1" source="_9r3t8t2S2ggoT1YVUvL-3" target="_9r3t8t2S2ggoT1YVUvL-10" edge="1">
          <mxGeometry relative="1" as="geometry">
            <mxPoint x="470" y="891" as="sourcePoint"/>
            <mxPoint x="290" y="891" as="targetPoint"/>
            <Array as="points">
              <mxPoint x="460" y="890"/>
            </Array>
          </mxGeometry>
        </mxCell>
        <mxCell id="_9r3t8t2S2ggoT1YVUvL-53" value="返回支付结果&lt;br&gt;积分 /&amp;nbsp;卡券核销" style="text;html=1;align=center;verticalAlign=middle;resizable=0;points=[];;labelBackgroundColor=#ffffff;" parent="_9r3t8t2S2ggoT1YVUvL-52" vertex="1" connectable="0">
          <mxGeometry y="-10" relative="1" as="geometry">
            <mxPoint x="5.5" y="10" as="offset"/>
          </mxGeometry>
        </mxCell>
        <mxCell id="_9r3t8t2S2ggoT1YVUvL-58" value="" style="html=1;verticalAlign=bottom;endArrow=block;labelBackgroundColor=none;fontFamily=Verdana;fontSize=12;elbow=vertical;" parent="qyCIQJJ-4fnG6ax5W55k-1" edge="1">
          <mxGeometry relative="1" as="geometry">
            <mxPoint x="268" y="250" as="sourcePoint"/>
            <mxPoint x="488" y="250" as="targetPoint"/>
          </mxGeometry>
        </mxCell>
        <mxCell id="_9r3t8t2S2ggoT1YVUvL-59" value="请求支付页面" style="text;html=1;align=center;verticalAlign=middle;resizable=0;points=[];;labelBackgroundColor=#ffffff;" parent="_9r3t8t2S2ggoT1YVUvL-58" vertex="1" connectable="0">
          <mxGeometry y="-10" relative="1" as="geometry">
            <mxPoint x="4.5" y="-12" as="offset"/>
          </mxGeometry>
        </mxCell>
        <mxCell id="JFikwZFjdtGQ9faXFQoH-0" value="" style="html=1;verticalAlign=bottom;endArrow=block;labelBackgroundColor=none;fontFamily=Verdana;fontSize=12;elbow=vertical;" parent="qyCIQJJ-4fnG6ax5W55k-1" edge="1">
          <mxGeometry relative="1" as="geometry">
            <mxPoint x="53" y="660" as="sourcePoint"/>
            <mxPoint x="258" y="660" as="targetPoint"/>
          </mxGeometry>
        </mxCell>
        <mxCell id="JFikwZFjdtGQ9faXFQoH-1" value="确认支付" style="text;html=1;align=center;verticalAlign=middle;resizable=0;points=[];;labelBackgroundColor=#ffffff;" parent="JFikwZFjdtGQ9faXFQoH-0" vertex="1" connectable="0">
          <mxGeometry y="-10" relative="1" as="geometry">
            <mxPoint x="4.5" y="-12" as="offset"/>
          </mxGeometry>
        </mxCell>
        <mxCell id="y0SD79MF2T57NPPgmqRh-0" value="" style="html=1;verticalAlign=bottom;endArrow=block;labelBackgroundColor=none;fontFamily=Verdana;fontSize=12;elbow=vertical;" parent="qyCIQJJ-4fnG6ax5W55k-1" edge="1">
          <mxGeometry relative="1" as="geometry">
            <mxPoint x="53" y="540" as="sourcePoint"/>
            <mxPoint x="258" y="540" as="targetPoint"/>
            <Array as="points">
              <mxPoint x="210" y="540"/>
            </Array>
          </mxGeometry>
        </mxCell>
        <mxCell id="y0SD79MF2T57NPPgmqRh-1" value="点击确认支付" style="text;html=1;align=center;verticalAlign=middle;resizable=0;points=[];;labelBackgroundColor=#ffffff;" parent="y0SD79MF2T57NPPgmqRh-0" vertex="1" connectable="0">
          <mxGeometry y="-10" relative="1" as="geometry">
            <mxPoint x="4.5" y="-12" as="offset"/>
          </mxGeometry>
        </mxCell>
        <mxCell id="y0SD79MF2T57NPPgmqRh-2" value="" style="html=1;verticalAlign=bottom;endArrow=block;labelBackgroundColor=none;fontFamily=Verdana;fontSize=12;elbow=vertical;" parent="qyCIQJJ-4fnG6ax5W55k-1" edge="1">
          <mxGeometry relative="1" as="geometry">
            <mxPoint x="268" y="560" as="sourcePoint"/>
            <mxPoint x="488" y="560" as="targetPoint"/>
          </mxGeometry>
        </mxCell>
        <mxCell id="y0SD79MF2T57NPPgmqRh-3" value="请求生成支付订单" style="text;html=1;align=center;verticalAlign=middle;resizable=0;points=[];;labelBackgroundColor=#ffffff;" parent="y0SD79MF2T57NPPgmqRh-2" vertex="1" connectable="0">
          <mxGeometry y="-10" relative="1" as="geometry">
            <mxPoint x="4.5" y="-12" as="offset"/>
          </mxGeometry>
        </mxCell>
        <mxCell id="5RWL0N__es_vp8D86FoU-0" value="Alter : 会员注册（非万金友会员显示）" style="swimlane;" parent="qyCIQJJ-4fnG6ax5W55k-1" vertex="1">
          <mxGeometry x="30" y="300" width="490" height="110" as="geometry">
            <mxRectangle x="30" y="260" width="90" height="23" as="alternateBounds"/>
          </mxGeometry>
        </mxCell>
        <mxCell id="12drhWJjxT_Stjl6uQ6x-4" value="" style="html=1;verticalAlign=bottom;endArrow=block;labelBackgroundColor=none;fontFamily=Verdana;fontSize=12;elbow=vertical;" parent="5RWL0N__es_vp8D86FoU-0" edge="1">
          <mxGeometry relative="1" as="geometry">
            <mxPoint x="458" y="82" as="sourcePoint"/>
            <mxPoint x="238" y="82" as="targetPoint"/>
            <Array as="points">
              <mxPoint x="270" y="82"/>
            </Array>
          </mxGeometry>
        </mxCell>
        <mxCell id="12drhWJjxT_Stjl6uQ6x-5" value="返回注册结果 /&amp;nbsp;注册奖励" style="text;html=1;align=center;verticalAlign=middle;resizable=0;points=[];;labelBackgroundColor=#ffffff;" parent="12drhWJjxT_Stjl6uQ6x-4" vertex="1" connectable="0">
          <mxGeometry y="-10" relative="1" as="geometry">
            <mxPoint y="10" as="offset"/>
          </mxGeometry>
        </mxCell>
        <mxCell id="12drhWJjxT_Stjl6uQ6x-6" value="" style="html=1;verticalAlign=bottom;endArrow=block;labelBackgroundColor=none;fontFamily=Verdana;fontSize=12;elbow=vertical;" parent="5RWL0N__es_vp8D86FoU-0" edge="1">
          <mxGeometry relative="1" as="geometry">
            <mxPoint x="23" y="98" as="sourcePoint"/>
            <mxPoint x="228" y="98" as="targetPoint"/>
            <Array as="points">
              <mxPoint x="190" y="98"/>
            </Array>
          </mxGeometry>
        </mxCell>
        <mxCell id="12drhWJjxT_Stjl6uQ6x-7" value="点击完成" style="text;html=1;align=center;verticalAlign=middle;resizable=0;points=[];;labelBackgroundColor=#ffffff;" parent="12drhWJjxT_Stjl6uQ6x-6" vertex="1" connectable="0">
          <mxGeometry y="-10" relative="1" as="geometry">
            <mxPoint x="4.5" y="-12" as="offset"/>
          </mxGeometry>
        </mxCell>
        <mxCell id="9ykNY2HoJBMwA7vkrBx8-0" value="" style="html=1;verticalAlign=bottom;endArrow=block;labelBackgroundColor=none;fontFamily=Verdana;fontSize=12;elbow=vertical;" parent="5RWL0N__es_vp8D86FoU-0" edge="1">
          <mxGeometry relative="1" as="geometry">
            <mxPoint x="458" y="40" as="sourcePoint"/>
            <mxPoint x="238" y="40" as="targetPoint"/>
            <Array as="points">
              <mxPoint x="270" y="40"/>
            </Array>
          </mxGeometry>
        </mxCell>
        <mxCell id="9ykNY2HoJBMwA7vkrBx8-1" value="一键注册入口" style="text;html=1;align=center;verticalAlign=middle;resizable=0;points=[];;labelBackgroundColor=#ffffff;" parent="9ykNY2HoJBMwA7vkrBx8-0" vertex="1" connectable="0">
          <mxGeometry y="-10" relative="1" as="geometry">
            <mxPoint y="10" as="offset"/>
          </mxGeometry>
        </mxCell>
        <mxCell id="12drhWJjxT_Stjl6uQ6x-0" value="" style="html=1;verticalAlign=bottom;endArrow=block;labelBackgroundColor=none;fontFamily=Verdana;fontSize=12;elbow=vertical;" parent="qyCIQJJ-4fnG6ax5W55k-1" edge="1">
          <mxGeometry relative="1" as="geometry">
            <mxPoint x="53" y="355" as="sourcePoint"/>
            <mxPoint x="258" y="355" as="targetPoint"/>
            <Array as="points">
              <mxPoint x="230" y="355"/>
            </Array>
          </mxGeometry>
        </mxCell>
        <mxCell id="12drhWJjxT_Stjl6uQ6x-1" value="点击一键注册" style="text;html=1;align=center;verticalAlign=middle;resizable=0;points=[];;labelBackgroundColor=#ffffff;" parent="12drhWJjxT_Stjl6uQ6x-0" vertex="1" connectable="0">
          <mxGeometry y="-10" relative="1" as="geometry">
            <mxPoint x="4.5" y="-12" as="offset"/>
          </mxGeometry>
        </mxCell>
        <mxCell id="12drhWJjxT_Stjl6uQ6x-2" value="" style="html=1;verticalAlign=bottom;endArrow=block;labelBackgroundColor=none;fontFamily=Verdana;fontSize=12;elbow=vertical;" parent="qyCIQJJ-4fnG6ax5W55k-1" edge="1">
          <mxGeometry relative="1" as="geometry">
            <mxPoint x="268" y="362" as="sourcePoint"/>
            <mxPoint x="488" y="362" as="targetPoint"/>
            <Array as="points">
              <mxPoint x="290" y="362"/>
            </Array>
          </mxGeometry>
        </mxCell>
        <mxCell id="12drhWJjxT_Stjl6uQ6x-3" value="传OpenId，请求注册结果页" style="text;html=1;align=center;verticalAlign=middle;resizable=0;points=[];;labelBackgroundColor=#ffffff;" parent="12drhWJjxT_Stjl6uQ6x-2" vertex="1" connectable="0">
          <mxGeometry y="-10" relative="1" as="geometry">
            <mxPoint x="4.5" y="-12" as="offset"/>
          </mxGeometry>
        </mxCell>
        <mxCell id="VCiJW9IrRKpFXWT8PwpD-0" value="" style="html=1;verticalAlign=bottom;endArrow=block;labelBackgroundColor=none;fontFamily=Verdana;fontSize=12;elbow=vertical;" parent="qyCIQJJ-4fnG6ax5W55k-1" source="_9r3t8t2S2ggoT1YVUvL-3" target="_9r3t8t2S2ggoT1YVUvL-10" edge="1">
          <mxGeometry relative="1" as="geometry">
            <mxPoint x="483" y="970" as="sourcePoint"/>
            <mxPoint x="273" y="970" as="targetPoint"/>
          </mxGeometry>
        </mxCell>
        <mxCell id="VCiJW9IrRKpFXWT8PwpD-1" value="一键注册入口" style="text;html=1;align=center;verticalAlign=middle;resizable=0;points=[];;labelBackgroundColor=#ffffff;" parent="VCiJW9IrRKpFXWT8PwpD-0" vertex="1" connectable="0">
          <mxGeometry y="-10" relative="1" as="geometry">
            <mxPoint y="10" as="offset"/>
          </mxGeometry>
        </mxCell>
        <mxCell id="VCiJW9IrRKpFXWT8PwpD-4" value="" style="html=1;verticalAlign=bottom;endArrow=block;labelBackgroundColor=none;fontFamily=Verdana;fontSize=12;elbow=vertical;" parent="qyCIQJJ-4fnG6ax5W55k-1" source="_9r3t8t2S2ggoT1YVUvL-10" target="_9r3t8t2S2ggoT1YVUvL-3" edge="1">
          <mxGeometry relative="1" as="geometry">
            <mxPoint x="273" y="1020" as="sourcePoint"/>
            <mxPoint x="483" y="1020" as="targetPoint"/>
            <Array as="points">
              <mxPoint x="460" y="1010"/>
            </Array>
          </mxGeometry>
        </mxCell>
        <mxCell id="VCiJW9IrRKpFXWT8PwpD-5" value="传OpenId，请求注册结果页" style="text;html=1;align=center;verticalAlign=middle;resizable=0;points=[];;labelBackgroundColor=#ffffff;" parent="VCiJW9IrRKpFXWT8PwpD-4" vertex="1" connectable="0">
          <mxGeometry y="-10" relative="1" as="geometry">
            <mxPoint x="4.5" y="-12" as="offset"/>
          </mxGeometry>
        </mxCell>
        <mxCell id="VCiJW9IrRKpFXWT8PwpD-6" value="" style="html=1;verticalAlign=bottom;endArrow=block;labelBackgroundColor=none;fontFamily=Verdana;fontSize=12;elbow=vertical;" parent="qyCIQJJ-4fnG6ax5W55k-1" source="_9r3t8t2S2ggoT1YVUvL-3" target="_9r3t8t2S2ggoT1YVUvL-10" edge="1">
          <mxGeometry relative="1" as="geometry">
            <mxPoint x="483" y="1050" as="sourcePoint"/>
            <mxPoint x="273" y="1050" as="targetPoint"/>
            <Array as="points">
              <mxPoint x="460" y="1040"/>
            </Array>
          </mxGeometry>
        </mxCell>
        <mxCell id="VCiJW9IrRKpFXWT8PwpD-7" value="返回注册结果 /&amp;nbsp;注册奖励" style="text;html=1;align=center;verticalAlign=middle;resizable=0;points=[];;labelBackgroundColor=#ffffff;" parent="VCiJW9IrRKpFXWT8PwpD-6" vertex="1" connectable="0">
          <mxGeometry y="-10" relative="1" as="geometry">
            <mxPoint y="10" as="offset"/>
          </mxGeometry>
        </mxCell>
        <mxCell id="VCiJW9IrRKpFXWT8PwpD-8" value="" style="html=1;verticalAlign=bottom;endArrow=block;labelBackgroundColor=none;fontFamily=Verdana;fontSize=12;elbow=vertical;" parent="qyCIQJJ-4fnG6ax5W55k-1" source="_9r3t8t2S2ggoT1YVUvL-18" target="_9r3t8t2S2ggoT1YVUvL-10" edge="1">
          <mxGeometry relative="1" as="geometry">
            <mxPoint x="78" y="1070" as="sourcePoint"/>
            <mxPoint x="250" y="1070" as="targetPoint"/>
            <Array as="points">
              <mxPoint x="220" y="1060"/>
            </Array>
          </mxGeometry>
        </mxCell>
        <mxCell id="VCiJW9IrRKpFXWT8PwpD-9" value="点击完成" style="text;html=1;align=center;verticalAlign=middle;resizable=0;points=[];;labelBackgroundColor=#ffffff;" parent="VCiJW9IrRKpFXWT8PwpD-8" vertex="1" connectable="0">
          <mxGeometry y="-10" relative="1" as="geometry">
            <mxPoint x="4.5" y="-12" as="offset"/>
          </mxGeometry>
        </mxCell>
        <mxCell id="VCiJW9IrRKpFXWT8PwpD-10" value="Alter : 会员注册（非万金友会员显示）" style="swimlane;" parent="qyCIQJJ-4fnG6ax5W55k-1" vertex="1">
          <mxGeometry x="20" y="920" width="498" height="160" as="geometry">
            <mxRectangle x="30" y="260" width="90" height="23" as="alternateBounds"/>
          </mxGeometry>
        </mxCell>
        <mxCell id="VCiJW9IrRKpFXWT8PwpD-2" value="" style="html=1;verticalAlign=bottom;endArrow=block;labelBackgroundColor=none;fontFamily=Verdana;fontSize=12;elbow=vertical;" parent="VCiJW9IrRKpFXWT8PwpD-10" edge="1">
          <mxGeometry relative="1" as="geometry">
            <mxPoint x="33" y="70" as="sourcePoint"/>
            <mxPoint x="238" y="70" as="targetPoint"/>
          </mxGeometry>
        </mxCell>
        <mxCell id="VCiJW9IrRKpFXWT8PwpD-3" value="点击一键注册" style="text;html=1;align=center;verticalAlign=middle;resizable=0;points=[];;labelBackgroundColor=#ffffff;" parent="VCiJW9IrRKpFXWT8PwpD-2" vertex="1" connectable="0">
          <mxGeometry y="-10" relative="1" as="geometry">
            <mxPoint x="4.5" y="-12" as="offset"/>
          </mxGeometry>
        </mxCell>
        <mxCell id="zsLbE5ZjIfDf2HGJ2_ms-0" value="Alter：会员混合支付（万金友会员显示）" style="swimlane;startSize=23;" parent="qyCIQJJ-4fnG6ax5W55k-1" vertex="1">
          <mxGeometry x="30" y="420" width="490" height="100" as="geometry">
            <mxRectangle x="30" y="260" width="90" height="23" as="alternateBounds"/>
          </mxGeometry>
        </mxCell>
        <mxCell id="_9r3t8t2S2ggoT1YVUvL-23" value="" style="html=1;verticalAlign=bottom;endArrow=block;labelBackgroundColor=none;fontFamily=Verdana;fontSize=12;elbow=vertical;" parent="zsLbE5ZjIfDf2HGJ2_ms-0" edge="1">
          <mxGeometry relative="1" as="geometry">
            <mxPoint x="238" y="67" as="sourcePoint"/>
            <mxPoint x="458" y="67" as="targetPoint"/>
            <Array as="points">
              <mxPoint x="420" y="67"/>
            </Array>
          </mxGeometry>
        </mxCell>
        <mxCell id="_9r3t8t2S2ggoT1YVUvL-24" value="冻结积分/卡券" style="text;html=1;align=center;verticalAlign=middle;resizable=0;points=[];;labelBackgroundColor=#ffffff;" parent="_9r3t8t2S2ggoT1YVUvL-23" vertex="1" connectable="0">
          <mxGeometry y="-10" relative="1" as="geometry">
            <mxPoint x="4.5" y="-12" as="offset"/>
          </mxGeometry>
        </mxCell>
        <mxCell id="_9r3t8t2S2ggoT1YVUvL-25" value="" style="html=1;verticalAlign=bottom;endArrow=block;labelBackgroundColor=none;fontFamily=Verdana;fontSize=12;elbow=vertical;" parent="zsLbE5ZjIfDf2HGJ2_ms-0" edge="1">
          <mxGeometry relative="1" as="geometry">
            <mxPoint x="458" y="87" as="sourcePoint"/>
            <mxPoint x="238" y="87" as="targetPoint"/>
            <Array as="points">
              <mxPoint x="260" y="87"/>
            </Array>
          </mxGeometry>
        </mxCell>
        <mxCell id="_9r3t8t2S2ggoT1YVUvL-26" value="冻结积分与卡券成功 /&amp;nbsp;实付金额" style="text;html=1;align=center;verticalAlign=middle;resizable=0;points=[];;labelBackgroundColor=#ffffff;" parent="_9r3t8t2S2ggoT1YVUvL-25" vertex="1" connectable="0">
          <mxGeometry y="-10" relative="1" as="geometry">
            <mxPoint x="2" y="9" as="offset"/>
          </mxGeometry>
        </mxCell>
        <mxCell id="_9r3t8t2S2ggoT1YVUvL-56" value="" style="html=1;verticalAlign=bottom;endArrow=block;labelBackgroundColor=none;fontFamily=Verdana;fontSize=12;elbow=vertical;" parent="zsLbE5ZjIfDf2HGJ2_ms-0" edge="1">
          <mxGeometry relative="1" as="geometry">
            <mxPoint x="23" y="55" as="sourcePoint"/>
            <mxPoint x="228" y="55" as="targetPoint"/>
            <Array as="points">
              <mxPoint x="80" y="55"/>
            </Array>
          </mxGeometry>
        </mxCell>
        <mxCell id="_9r3t8t2S2ggoT1YVUvL-57" value="选择积分/卡券支付" style="text;html=1;align=center;verticalAlign=middle;resizable=0;points=[];;labelBackgroundColor=#ffffff;" parent="_9r3t8t2S2ggoT1YVUvL-56" vertex="1" connectable="0">
          <mxGeometry y="-10" relative="1" as="geometry">
            <mxPoint x="4.5" y="-12" as="offset"/>
          </mxGeometry>
        </mxCell>
        <mxCell id="FbbJh1KXE_NSa0ooX7d2-2" value="" style="html=1;verticalAlign=bottom;endArrow=block;labelBackgroundColor=none;fontFamily=Verdana;fontSize=12;elbow=vertical;" parent="zsLbE5ZjIfDf2HGJ2_ms-0" edge="1">
          <mxGeometry relative="1" as="geometry">
            <mxPoint x="458" y="40" as="sourcePoint"/>
            <mxPoint x="238" y="40" as="targetPoint"/>
            <Array as="points">
              <mxPoint x="260" y="40"/>
            </Array>
          </mxGeometry>
        </mxCell>
        <mxCell id="FbbJh1KXE_NSa0ooX7d2-3" value="返回积分 /&amp;nbsp;卡券信息" style="text;html=1;align=center;verticalAlign=middle;resizable=0;points=[];;labelBackgroundColor=#ffffff;" parent="FbbJh1KXE_NSa0ooX7d2-2" vertex="1" connectable="0">
          <mxGeometry y="-10" relative="1" as="geometry">
            <mxPoint x="-9" y="10" as="offset"/>
          </mxGeometry>
        </mxCell>
        <mxCell id="FbbJh1KXE_NSa0ooX7d2-0" value="" style="html=1;verticalAlign=bottom;endArrow=block;labelBackgroundColor=none;fontFamily=Verdana;fontSize=12;elbow=vertical;" parent="qyCIQJJ-4fnG6ax5W55k-1" edge="1">
          <mxGeometry relative="1" as="geometry">
            <mxPoint x="488" y="280" as="sourcePoint"/>
            <mxPoint x="268" y="280" as="targetPoint"/>
            <Array as="points">
              <mxPoint x="300" y="280"/>
            </Array>
          </mxGeometry>
        </mxCell>
        <mxCell id="FbbJh1KXE_NSa0ooX7d2-1" value="返回支付页面 /&amp;nbsp;Alter信息" style="text;html=1;align=center;verticalAlign=middle;resizable=0;points=[];;labelBackgroundColor=#ffffff;" parent="FbbJh1KXE_NSa0ooX7d2-0" vertex="1" connectable="0">
          <mxGeometry y="-10" relative="1" as="geometry">
            <mxPoint y="10" as="offset"/>
          </mxGeometry>
        </mxCell>
      </root>
    </mxGraphModel>
  </diagram>
  <diagram id="WIlchpHg1aOLlSqgdgYw" name="场景5-客户扫礼包码领取礼包">
    <mxGraphModel dx="981" dy="551" grid="1" gridSize="10" guides="1" tooltips="1" connect="1" arrows="1" fold="1" page="1" pageScale="1" pageWidth="827" pageHeight="1169" math="0" shadow="0">
      <root>
        <mxCell id="gzqyZ5b1xeelsWou4y1u-0"/>
        <mxCell id="gzqyZ5b1xeelsWou4y1u-1" parent="gzqyZ5b1xeelsWou4y1u-0"/>
        <mxCell id="PDJI_mjnvx8FPCVeEKZ8-0" value="万金友付服务端" style="shape=umlLifeline;perimeter=lifelinePerimeter;whiteSpace=wrap;html=1;container=1;collapsible=0;recursiveResize=0;outlineConnect=0;rounded=1;shadow=0;comic=0;labelBackgroundColor=none;strokeWidth=1;fontFamily=Verdana;fontSize=12;align=center;" vertex="1" parent="gzqyZ5b1xeelsWou4y1u-1">
          <mxGeometry x="590" y="59" width="100" height="541" as="geometry"/>
        </mxCell>
        <mxCell id="PDJI_mjnvx8FPCVeEKZ8-1" value="" style="html=1;points=[];perimeter=orthogonalPerimeter;rounded=0;shadow=0;comic=0;labelBackgroundColor=none;strokeWidth=1;fontFamily=Verdana;fontSize=12;align=center;" vertex="1" parent="PDJI_mjnvx8FPCVeEKZ8-0">
          <mxGeometry x="45" y="90" width="10" height="50" as="geometry"/>
        </mxCell>
        <mxCell id="PDJI_mjnvx8FPCVeEKZ8-88" value="" style="html=1;points=[];perimeter=orthogonalPerimeter;rounded=0;shadow=0;comic=0;labelBackgroundColor=none;strokeWidth=1;fontFamily=Verdana;fontSize=12;align=center;" vertex="1" parent="gzqyZ5b1xeelsWou4y1u-1">
          <mxGeometry x="635" y="239" width="10" height="330" as="geometry"/>
        </mxCell>
        <mxCell id="PDJI_mjnvx8FPCVeEKZ8-17" value="" style="endArrow=none;dashed=1;html=1;strokeColor=#000000;entryX=0.5;entryY=0.5;entryDx=0;entryDy=0;entryPerimeter=0;" edge="1" parent="gzqyZ5b1xeelsWou4y1u-1" target="PDJI_mjnvx8FPCVeEKZ8-16">
          <mxGeometry width="50" height="50" relative="1" as="geometry">
            <mxPoint x="195" y="600" as="sourcePoint"/>
            <mxPoint x="230" y="139" as="targetPoint"/>
          </mxGeometry>
        </mxCell>
        <mxCell id="PDJI_mjnvx8FPCVeEKZ8-18" value="" style="html=1;points=[];perimeter=orthogonalPerimeter;rounded=0;shadow=0;comic=0;labelBackgroundColor=none;strokeWidth=1;fontFamily=Verdana;fontSize=12;align=center;" vertex="1" parent="gzqyZ5b1xeelsWou4y1u-1">
          <mxGeometry x="190" y="159" width="10" height="411" as="geometry"/>
        </mxCell>
        <mxCell id="PDJI_mjnvx8FPCVeEKZ8-9" value="微信客户端" style="shape=umlLifeline;perimeter=lifelinePerimeter;whiteSpace=wrap;html=1;container=1;collapsible=0;recursiveResize=0;outlineConnect=0;rounded=1;shadow=0;comic=0;labelBackgroundColor=none;strokeWidth=1;fontFamily=Verdana;fontSize=12;align=center;" vertex="1" parent="gzqyZ5b1xeelsWou4y1u-1">
          <mxGeometry x="360" y="59" width="90" height="541" as="geometry"/>
        </mxCell>
        <mxCell id="PDJI_mjnvx8FPCVeEKZ8-85" value="" style="html=1;points=[];perimeter=orthogonalPerimeter;rounded=0;shadow=0;comic=0;labelBackgroundColor=none;strokeWidth=1;fontFamily=Verdana;fontSize=12;align=center;" vertex="1" parent="PDJI_mjnvx8FPCVeEKZ8-9">
          <mxGeometry x="40" y="181" width="10" height="330" as="geometry"/>
        </mxCell>
        <mxCell id="Kxe2WcnbU4wpCTzhiOhE-0" value="Alter : 验密领取" style="swimlane;" vertex="1" parent="PDJI_mjnvx8FPCVeEKZ8-9">
          <mxGeometry x="-200" y="360" width="510" height="100" as="geometry">
            <mxRectangle x="30" y="260" width="90" height="23" as="alternateBounds"/>
          </mxGeometry>
        </mxCell>
        <mxCell id="Kxe2WcnbU4wpCTzhiOhE-7" style="edgeStyle=orthogonalEdgeStyle;rounded=0;orthogonalLoop=1;jettySize=auto;html=1;" edge="1" parent="Kxe2WcnbU4wpCTzhiOhE-0">
          <mxGeometry relative="1" as="geometry">
            <mxPoint x="40.285714285714334" y="50.071428571428555" as="sourcePoint"/>
            <mxPoint x="242.5" y="50.071428571428555" as="targetPoint"/>
            <Array as="points">
              <mxPoint x="195" y="50.5"/>
              <mxPoint x="195" y="50.5"/>
            </Array>
          </mxGeometry>
        </mxCell>
        <mxCell id="Kxe2WcnbU4wpCTzhiOhE-8" value="领取验证要素&lt;br&gt;（卡号/密码；房间号/户主名）" style="text;html=1;align=center;verticalAlign=middle;resizable=0;points=[];;labelBackgroundColor=#ffffff;" vertex="1" connectable="0" parent="Kxe2WcnbU4wpCTzhiOhE-7">
          <mxGeometry x="-0.1707" y="-7" relative="1" as="geometry">
            <mxPoint x="10" y="-7" as="offset"/>
          </mxGeometry>
        </mxCell>
        <mxCell id="Kxe2WcnbU4wpCTzhiOhE-9" style="edgeStyle=orthogonalEdgeStyle;rounded=0;orthogonalLoop=1;jettySize=auto;html=1;" edge="1" parent="Kxe2WcnbU4wpCTzhiOhE-0" target="PDJI_mjnvx8FPCVeEKZ8-88">
          <mxGeometry relative="1" as="geometry">
            <mxPoint x="255.28571428571433" y="64.64285714285711" as="sourcePoint"/>
            <mxPoint x="465" y="64" as="targetPoint"/>
            <Array as="points">
              <mxPoint x="415" y="64"/>
              <mxPoint x="415" y="64"/>
            </Array>
          </mxGeometry>
        </mxCell>
        <mxCell id="Kxe2WcnbU4wpCTzhiOhE-10" value="要素验证" style="text;html=1;align=center;verticalAlign=middle;resizable=0;points=[];;labelBackgroundColor=#ffffff;" vertex="1" connectable="0" parent="Kxe2WcnbU4wpCTzhiOhE-9">
          <mxGeometry x="-0.1707" y="-7" relative="1" as="geometry">
            <mxPoint x="10" y="-7" as="offset"/>
          </mxGeometry>
        </mxCell>
        <mxCell id="PDJI_mjnvx8FPCVeEKZ8-14" value="" style="html=1;verticalAlign=bottom;endArrow=block;labelBackgroundColor=none;fontFamily=Verdana;fontSize=12;elbow=vertical;entryX=1.1;entryY=0.023;entryDx=0;entryDy=0;entryPerimeter=0;" edge="1" parent="gzqyZ5b1xeelsWou4y1u-1">
          <mxGeometry relative="1" as="geometry">
            <mxPoint x="634.9999999999998" y="178.75999999999988" as="sourcePoint"/>
            <mxPoint x="200" y="178.75999999999988" as="targetPoint"/>
          </mxGeometry>
        </mxCell>
        <mxCell id="PDJI_mjnvx8FPCVeEKZ8-15" value="礼包码通过渠道发放给客户" style="text;html=1;align=center;verticalAlign=middle;resizable=0;points=[];;labelBackgroundColor=#ffffff;" vertex="1" connectable="0" parent="PDJI_mjnvx8FPCVeEKZ8-14">
          <mxGeometry y="-10" relative="1" as="geometry">
            <mxPoint x="-8" y="10" as="offset"/>
          </mxGeometry>
        </mxCell>
        <mxCell id="PDJI_mjnvx8FPCVeEKZ8-16" value="客户" style="shape=umlActor;verticalLabelPosition=bottom;labelBackgroundColor=#ffffff;verticalAlign=top;html=1;outlineConnect=0;" vertex="1" parent="gzqyZ5b1xeelsWou4y1u-1">
          <mxGeometry x="180" y="39" width="30" height="60" as="geometry"/>
        </mxCell>
        <mxCell id="PDJI_mjnvx8FPCVeEKZ8-86" style="edgeStyle=orthogonalEdgeStyle;rounded=0;orthogonalLoop=1;jettySize=auto;html=1;" edge="1" parent="gzqyZ5b1xeelsWou4y1u-1" source="PDJI_mjnvx8FPCVeEKZ8-18" target="PDJI_mjnvx8FPCVeEKZ8-85">
          <mxGeometry relative="1" as="geometry">
            <Array as="points">
              <mxPoint x="285" y="254"/>
              <mxPoint x="285" y="254"/>
            </Array>
          </mxGeometry>
        </mxCell>
        <mxCell id="PDJI_mjnvx8FPCVeEKZ8-87" value="扫描礼包码" style="text;html=1;align=center;verticalAlign=middle;resizable=0;points=[];;labelBackgroundColor=#ffffff;" vertex="1" connectable="0" parent="PDJI_mjnvx8FPCVeEKZ8-86">
          <mxGeometry x="-0.1707" y="-7" relative="1" as="geometry">
            <mxPoint x="10" y="-7" as="offset"/>
          </mxGeometry>
        </mxCell>
        <mxCell id="PDJI_mjnvx8FPCVeEKZ8-91" style="edgeStyle=orthogonalEdgeStyle;rounded=0;orthogonalLoop=1;jettySize=auto;html=1;" edge="1" parent="gzqyZ5b1xeelsWou4y1u-1" source="PDJI_mjnvx8FPCVeEKZ8-88" target="PDJI_mjnvx8FPCVeEKZ8-85">
          <mxGeometry relative="1" as="geometry">
            <Array as="points">
              <mxPoint x="555" y="299"/>
              <mxPoint x="555" y="299"/>
            </Array>
          </mxGeometry>
        </mxCell>
        <mxCell id="PDJI_mjnvx8FPCVeEKZ8-92" value="返回礼包领取页面" style="text;html=1;align=center;verticalAlign=middle;resizable=0;points=[];;labelBackgroundColor=#ffffff;" vertex="1" connectable="0" parent="PDJI_mjnvx8FPCVeEKZ8-91">
          <mxGeometry x="0.2727" y="-1" relative="1" as="geometry">
            <mxPoint x="20" y="1" as="offset"/>
          </mxGeometry>
        </mxCell>
        <mxCell id="PDJI_mjnvx8FPCVeEKZ8-89" style="edgeStyle=orthogonalEdgeStyle;rounded=0;orthogonalLoop=1;jettySize=auto;html=1;" edge="1" parent="gzqyZ5b1xeelsWou4y1u-1" source="PDJI_mjnvx8FPCVeEKZ8-85" target="PDJI_mjnvx8FPCVeEKZ8-88">
          <mxGeometry relative="1" as="geometry">
            <mxPoint x="425" y="269" as="sourcePoint"/>
            <mxPoint x="630" y="269" as="targetPoint"/>
            <Array as="points">
              <mxPoint x="595" y="269"/>
              <mxPoint x="595" y="269"/>
            </Array>
          </mxGeometry>
        </mxCell>
        <mxCell id="PDJI_mjnvx8FPCVeEKZ8-90" value="请求礼包领取页面" style="text;html=1;align=center;verticalAlign=middle;resizable=0;points=[];;labelBackgroundColor=#ffffff;" vertex="1" connectable="0" parent="PDJI_mjnvx8FPCVeEKZ8-89">
          <mxGeometry x="-0.1707" y="-7" relative="1" as="geometry">
            <mxPoint x="10" y="-7" as="offset"/>
          </mxGeometry>
        </mxCell>
        <mxCell id="PDJI_mjnvx8FPCVeEKZ8-93" style="edgeStyle=orthogonalEdgeStyle;rounded=0;orthogonalLoop=1;jettySize=auto;html=1;" edge="1" parent="gzqyZ5b1xeelsWou4y1u-1" target="PDJI_mjnvx8FPCVeEKZ8-85">
          <mxGeometry relative="1" as="geometry">
            <mxPoint x="200" y="328.5" as="sourcePoint"/>
            <mxPoint x="385" y="329" as="targetPoint"/>
            <Array as="points">
              <mxPoint x="355" y="329"/>
              <mxPoint x="355" y="329"/>
            </Array>
          </mxGeometry>
        </mxCell>
        <mxCell id="PDJI_mjnvx8FPCVeEKZ8-94" value="登录（手机+验证码）" style="text;html=1;align=center;verticalAlign=middle;resizable=0;points=[];;labelBackgroundColor=#ffffff;" vertex="1" connectable="0" parent="PDJI_mjnvx8FPCVeEKZ8-93">
          <mxGeometry x="-0.1707" y="-7" relative="1" as="geometry">
            <mxPoint x="10" y="-7" as="offset"/>
          </mxGeometry>
        </mxCell>
        <mxCell id="PDJI_mjnvx8FPCVeEKZ8-95" style="edgeStyle=orthogonalEdgeStyle;rounded=0;orthogonalLoop=1;jettySize=auto;html=1;" edge="1" parent="gzqyZ5b1xeelsWou4y1u-1" source="PDJI_mjnvx8FPCVeEKZ8-85">
          <mxGeometry relative="1" as="geometry">
            <mxPoint x="415" y="359" as="sourcePoint"/>
            <mxPoint x="635" y="359" as="targetPoint"/>
            <Array as="points">
              <mxPoint x="480" y="359"/>
              <mxPoint x="480" y="359"/>
            </Array>
          </mxGeometry>
        </mxCell>
        <mxCell id="PDJI_mjnvx8FPCVeEKZ8-96" value="请求验证登录" style="text;html=1;align=center;verticalAlign=middle;resizable=0;points=[];;labelBackgroundColor=#ffffff;" vertex="1" connectable="0" parent="PDJI_mjnvx8FPCVeEKZ8-95">
          <mxGeometry x="-0.1707" y="-7" relative="1" as="geometry">
            <mxPoint x="17" y="-6.5" as="offset"/>
          </mxGeometry>
        </mxCell>
        <mxCell id="PDJI_mjnvx8FPCVeEKZ8-97" style="edgeStyle=orthogonalEdgeStyle;rounded=0;orthogonalLoop=1;jettySize=auto;html=1;" edge="1" parent="gzqyZ5b1xeelsWou4y1u-1" target="PDJI_mjnvx8FPCVeEKZ8-85">
          <mxGeometry relative="1" as="geometry">
            <mxPoint x="635" y="389" as="sourcePoint"/>
            <mxPoint x="415" y="389" as="targetPoint"/>
            <Array as="points">
              <mxPoint x="470" y="390"/>
              <mxPoint x="470" y="390"/>
            </Array>
          </mxGeometry>
        </mxCell>
        <mxCell id="PDJI_mjnvx8FPCVeEKZ8-98" value="登录结果" style="text;html=1;align=center;verticalAlign=middle;resizable=0;points=[];;labelBackgroundColor=#ffffff;" vertex="1" connectable="0" parent="PDJI_mjnvx8FPCVeEKZ8-97">
          <mxGeometry x="0.2727" y="-1" relative="1" as="geometry">
            <mxPoint x="28" y="2" as="offset"/>
          </mxGeometry>
        </mxCell>
        <mxCell id="Kxe2WcnbU4wpCTzhiOhE-11" style="edgeStyle=orthogonalEdgeStyle;rounded=0;orthogonalLoop=1;jettySize=auto;html=1;" edge="1" parent="gzqyZ5b1xeelsWou4y1u-1">
          <mxGeometry relative="1" as="geometry">
            <mxPoint x="635" y="540.1724137931035" as="sourcePoint"/>
            <mxPoint x="410" y="540.8620689655173" as="targetPoint"/>
            <Array as="points">
              <mxPoint x="522" y="541"/>
            </Array>
          </mxGeometry>
        </mxCell>
        <mxCell id="Kxe2WcnbU4wpCTzhiOhE-14" value="领取结果" style="text;html=1;align=center;verticalAlign=middle;resizable=0;points=[];;labelBackgroundColor=#ffffff;" vertex="1" connectable="0" parent="Kxe2WcnbU4wpCTzhiOhE-11">
          <mxGeometry x="0.1473" relative="1" as="geometry">
            <mxPoint x="14" y="-1" as="offset"/>
          </mxGeometry>
        </mxCell>
      </root>
    </mxGraphModel>
  </diagram>
</mxfile>
